<svg width="190" height="59" viewBox="0 0 190 59" fill="none" xmlns="http://www.w3.org/2000/svg">
<path d="M94.9077 2.01552C97.4571 2.01552 99.6099 2.40501 101.366 3.18399C103.122 3.9488 104.546 5.02521 105.636 6.41322C106.741 7.80122 107.534 9.46541 108.016 11.4058C108.497 13.332 108.738 15.4565 108.738 17.7793C108.738 20.102 108.497 22.2336 108.016 24.174C107.534 26.1002 106.741 27.7573 105.636 29.1453C104.546 30.5333 103.122 31.6168 101.366 32.3958C99.6099 33.1606 97.4571 33.543 94.9077 33.543C92.4008 33.543 90.2692 33.1677 88.5129 32.417C86.7567 31.6664 85.3262 30.6041 84.2215 29.2303C83.1309 27.8564 82.3307 26.1993 81.8208 24.259C81.3251 22.3186 81.0772 20.1587 81.0772 17.7793C81.0772 15.3998 81.3251 13.2399 81.8208 11.2996C82.3307 9.35918 83.1309 7.70208 84.2215 6.32824C85.3262 4.9544 86.7567 3.89215 88.5129 3.1415C90.2692 2.39084 92.4008 2.01552 94.9077 2.01552ZM94.9077 6.37073C93.4205 6.37073 92.1741 6.6115 91.1686 7.09305C90.1771 7.57461 89.3769 8.29693 88.7679 9.26004C88.173 10.209 87.7481 11.3987 87.4932 12.8292C87.2382 14.2455 87.1108 15.8955 87.1108 17.7793C87.1108 19.663 87.2382 21.3201 87.4932 22.7506C87.7481 24.1669 88.173 25.3566 88.7679 26.3197C89.3769 27.2687 90.1771 27.9839 91.1686 28.4655C92.1741 28.947 93.4205 29.1878 94.9077 29.1878C96.3806 29.1878 97.6129 28.9541 98.6043 28.4867C99.6099 28.0052 100.41 27.2899 101.005 26.341C101.614 25.392 102.046 24.2023 102.301 22.7718C102.57 21.3413 102.705 19.6771 102.705 17.7793C102.705 15.8814 102.57 14.2172 102.301 12.7867C102.046 11.3562 101.614 10.1665 101.005 9.21755C100.41 8.26861 99.6099 7.56044 98.6043 7.09305C97.6129 6.6115 96.3806 6.37073 94.9077 6.37073Z" fill="#2A5985"/>
<path d="M120.954 14.72C121.464 13.9693 121.938 13.3532 122.377 12.8717C122.802 12.4043 123.248 12.0219 123.716 11.7245C124.183 11.4129 124.651 11.165 125.118 10.9809C125.6 10.7826 126.081 10.648 126.563 10.5772C127.044 10.4922 127.519 10.4498 127.986 10.4498C128.383 10.4498 128.765 10.4781 129.133 10.5347C129.516 10.5772 129.87 10.6339 130.196 10.7047C130.153 11.1013 130.096 11.5262 130.026 11.9794C129.955 12.4185 129.877 12.8646 129.792 13.3178C129.707 13.771 129.608 14.2172 129.494 14.6563C129.395 15.0953 129.289 15.506 129.176 15.8885C128.368 15.7327 127.667 15.6052 127.072 15.506C126.478 15.3927 125.947 15.3361 125.479 15.3361C125.04 15.3361 124.636 15.3998 124.268 15.5273C123.914 15.6406 123.56 15.846 123.206 16.1434C122.852 16.4408 122.484 16.8374 122.101 17.3331C121.733 17.8147 121.315 18.4237 120.848 19.1602V33.0331H115.027V19.4151C115.027 18.5936 115.02 17.8288 115.005 17.1207C114.991 16.3983 114.963 15.7256 114.92 15.1024C114.878 14.465 114.814 13.8631 114.729 13.2966C114.644 12.73 114.531 12.1777 114.389 11.6395C115.31 11.3987 116.223 11.1792 117.13 10.9809C118.05 10.7826 118.978 10.6056 119.913 10.4498C120.012 10.7472 120.104 11.0446 120.189 11.342C120.274 11.6253 120.345 11.9369 120.402 12.2768C120.458 12.6026 120.508 12.9637 120.55 13.3603C120.593 13.7569 120.635 14.2101 120.678 14.72H120.954Z" fill="#2A5985"/>
<path d="M140.988 2.44041V13.7852H141.094C141.505 13.2612 141.944 12.7938 142.411 12.383C142.879 11.9581 143.382 11.597 143.92 11.2996C144.472 11.0021 145.067 10.7755 145.704 10.6197C146.342 10.4639 147.043 10.386 147.808 10.386C149.295 10.386 150.548 10.6764 151.568 11.2571C152.588 11.8378 153.409 12.6167 154.032 13.594C154.67 14.5713 155.123 15.7114 155.392 17.0144C155.675 18.3033 155.817 19.6559 155.817 21.0722C155.817 22.9984 155.597 24.7264 155.158 26.256C154.719 27.7856 154.004 29.0886 153.013 30.1651C152.021 31.2273 150.718 32.0488 149.104 32.6295C147.503 33.196 145.527 33.4793 143.176 33.4793C141.732 33.4793 140.365 33.4084 139.076 33.2668C137.801 33.1393 136.519 32.9835 135.231 32.7994V2.44041H140.988ZM140.988 28.8266C141.569 28.9541 142.135 29.0532 142.688 29.1241C143.24 29.1949 143.771 29.2303 144.281 29.2303C145.102 29.2303 145.86 29.1241 146.554 28.9116C147.262 28.6992 147.871 28.3451 148.381 27.8494C148.891 27.3536 149.288 26.695 149.571 25.8736C149.854 25.0521 149.996 24.0253 149.996 22.7931C149.996 21.6033 149.946 20.5128 149.847 19.5213C149.748 18.5157 149.55 17.6518 149.252 16.9295C148.955 16.2071 148.53 15.6477 147.978 15.2511C147.425 14.8404 146.696 14.635 145.789 14.635C145.223 14.635 144.713 14.7412 144.26 14.9537C143.821 15.152 143.41 15.4352 143.027 15.8035C142.645 16.1576 142.284 16.5825 141.944 17.0782C141.618 17.5739 141.3 18.1192 140.988 18.714V28.8266Z" fill="#2A5985"/>
<path d="M164.506 0.167206C164.988 0.167206 165.441 0.259267 165.866 0.44339C166.305 0.627513 166.68 0.882452 166.992 1.20821C167.317 1.5198 167.572 1.89513 167.757 2.33419C167.941 2.75909 168.033 3.21231 168.033 3.69387C168.033 4.18958 167.941 4.64989 167.757 5.07479C167.572 5.49968 167.317 5.87501 166.992 6.20077C166.68 6.52652 166.305 6.78146 165.866 6.96559C165.441 7.14971 164.988 7.24177 164.506 7.24177C164.01 7.24177 163.55 7.14971 163.125 6.96559C162.7 6.78146 162.325 6.52652 161.999 6.20077C161.673 5.87501 161.418 5.49968 161.234 5.07479C161.05 4.64989 160.958 4.18958 160.958 3.69387C160.958 3.21231 161.05 2.75909 161.234 2.33419C161.418 1.89513 161.673 1.5198 161.999 1.20821C162.325 0.882452 162.7 0.627513 163.125 0.44339C163.55 0.259267 164.01 0.167206 164.506 0.167206ZM167.395 10.9384V33.0331H161.574V10.9384H167.395Z" fill="#2A5985"/>
<path d="M182.564 5.88209V10.9384H190V15.1874H182.564V25.7886C182.564 26.4826 182.593 27.0562 182.649 27.5094C182.72 27.9627 182.84 28.3238 183.01 28.5929C183.18 28.8479 183.414 29.032 183.712 29.1453C184.009 29.2444 184.391 29.294 184.859 29.294C185.312 29.294 185.836 29.2444 186.431 29.1453C187.04 29.0462 187.755 28.9045 188.577 28.7204C188.662 28.9753 188.754 29.2728 188.853 29.6127C188.966 29.9526 189.072 30.3067 189.171 30.6749C189.285 31.029 189.391 31.376 189.49 31.7159C189.589 32.0417 189.681 32.332 189.766 32.587C189.37 32.7286 188.902 32.8632 188.364 32.9906C187.84 33.1039 187.288 33.2031 186.707 33.2881C186.126 33.373 185.539 33.4368 184.944 33.4793C184.349 33.5218 183.789 33.543 183.265 33.543C182.77 33.543 182.281 33.5218 181.799 33.4793C181.318 33.4368 180.858 33.3589 180.419 33.2456C179.994 33.1464 179.597 33.0119 179.229 32.8419C178.861 32.672 178.542 32.4524 178.273 32.1833C177.65 31.5743 177.239 30.7387 177.041 29.6764C176.842 28.6 176.743 27.2333 176.743 25.5761V15.1874H173.556V10.9384H176.743V5.88209H182.564Z" fill="#2A5985"/>
<path d="M10.6437 2.48291V23.919C10.6437 25.7461 10.5658 27.3536 10.41 28.7416C10.2684 30.1296 9.96387 31.3619 9.49649 32.4383C9.24155 33.0048 8.92287 33.5642 8.54046 34.1166C8.15806 34.669 7.6765 35.2072 7.09581 35.7312C6.52928 36.2694 5.85652 36.7935 5.07754 37.3034C4.31272 37.8132 3.41335 38.3231 2.37943 38.833L0 35.5613C0.750654 34.8956 1.41633 34.2795 1.99702 33.713C2.59188 33.1606 3.09468 32.5303 3.50541 31.8222C3.90199 31.114 4.19942 30.2713 4.3977 29.294C4.61015 28.3167 4.71638 27.0845 4.71638 25.5974V2.48291H10.6437Z" fill="#CB1944"/>
<path d="M43.5096 2.48291V33.0331H37.5823V18.1404H24.0705V33.0331H18.1432V2.48291H24.0705V13.7852H37.5823V2.48291H43.5096Z" fill="#CB1944"/>
<path d="M51.1153 27.7431C52.2909 28.1964 53.5443 28.5788 54.8757 28.8904C56.2212 29.1878 57.68 29.3365 59.2521 29.3365C60.2719 29.3365 61.2067 29.2444 62.0565 29.0603C62.9063 28.8762 63.6357 28.5858 64.2447 28.1893C64.8679 27.7927 65.3494 27.2899 65.6893 26.6809C66.0434 26.0577 66.2205 25.3141 66.2205 24.4502C66.2205 23.5154 66.0293 22.7718 65.6469 22.2194C65.2786 21.6671 64.7546 21.2139 64.0747 20.8598C63.3949 20.5057 62.5734 20.2083 61.6103 19.9675C60.6472 19.7267 59.5779 19.4576 58.4023 19.1602C57.0851 18.8203 55.8813 18.4308 54.7907 17.9917C53.7143 17.5526 52.7937 16.9861 52.0288 16.2921C51.264 15.5981 50.6692 14.7412 50.2443 13.7215C49.8194 12.7017 49.6069 11.4412 49.6069 9.93988C49.6069 8.93428 49.7698 8.03492 50.0956 7.24177C50.4355 6.44863 50.8887 5.76171 51.4552 5.18101C52.0218 4.58615 52.6733 4.08336 53.4098 3.67262C54.1604 3.26189 54.9394 2.92905 55.7467 2.67411C56.5682 2.41917 57.4038 2.23505 58.2536 2.12174C59.1034 2.00844 59.9107 1.95178 60.6755 1.95178C61.2137 1.95178 61.8582 1.98011 62.6088 2.03676C63.3736 2.09342 64.1809 2.19964 65.0307 2.35544C65.8947 2.49707 66.7799 2.68827 67.6864 2.92905C68.607 3.16983 69.4922 3.47434 70.342 3.84258L68.8336 7.5392C67.7005 7.12846 66.5179 6.79563 65.2857 6.54069C64.0676 6.28575 62.7859 6.15828 61.4404 6.15828C60.5906 6.15828 59.8116 6.2291 59.1034 6.37073C58.3952 6.4982 57.7791 6.71065 57.2551 7.00808C56.7452 7.30551 56.3486 7.695 56.0654 8.17655C55.7821 8.6581 55.6405 9.23879 55.6405 9.91863C55.6405 10.7968 55.8104 11.4837 56.1504 11.9794C56.5044 12.4751 57.0072 12.8788 57.6588 13.1904C58.3103 13.5019 59.1034 13.771 60.0382 13.9977C60.9871 14.2101 62.0565 14.4721 63.2462 14.7837C64.5492 15.1236 65.746 15.5273 66.8366 15.9947C67.9413 16.4479 68.8902 17.0428 69.6834 17.7793C70.4907 18.5016 71.121 19.401 71.5742 20.4774C72.0274 21.5538 72.254 22.878 72.254 24.4502C72.254 25.8382 72.0345 27.0279 71.5954 28.0193C71.1564 29.0107 70.5828 29.8464 69.8746 30.5262C69.1664 31.1919 68.3591 31.723 67.4527 32.1196C66.5462 32.5162 65.6256 32.8207 64.6908 33.0331C63.7561 33.2456 62.8496 33.3801 61.9715 33.4368C61.0934 33.5076 60.3215 33.543 59.6558 33.543C59.0043 33.5288 58.2678 33.4863 57.4463 33.4155C56.639 33.3447 55.7892 33.2314 54.8969 33.0756C54.0046 32.9198 53.0982 32.7144 52.1776 32.4595C51.2711 32.1904 50.393 31.8647 49.5432 31.4822L51.1153 27.7431Z" fill="#CB1944"/>
<path d="M4.98793 49.7812L5.59327 50.2674L2.96217 53.3847L5.82207 56.7403H4.74484L1.92784 53.4323V56.7403H1.03174V49.8861H1.92784V53.4133L4.98793 49.7812Z" fill="#2A5985"/>
<path d="M10.927 56.4638C10.5743 56.6037 10.2422 56.7037 9.93078 56.7641C9.62255 56.8245 9.34609 56.8547 9.10141 56.8547C8.72645 56.8547 8.39915 56.7959 8.11951 56.6783C7.83988 56.5576 7.60632 56.3892 7.41884 56.1731C7.23454 55.957 7.09472 55.6996 6.99939 55.4009C6.90724 55.099 6.86116 54.767 6.86116 54.4047C6.86116 54.1823 6.87705 53.9598 6.90883 53.7374C6.9406 53.515 6.99145 53.3036 7.06135 53.1035C7.13126 52.9001 7.22183 52.711 7.33304 52.5362C7.44744 52.3615 7.58567 52.2105 7.74773 52.0834C7.90979 51.9563 8.09886 51.8562 8.31494 51.7831C8.53102 51.7101 8.77729 51.6735 9.05375 51.6735C9.76237 51.6735 10.2962 51.8959 10.6553 52.3408C11.0144 52.7825 11.1939 53.4165 11.1939 54.2426V54.5048H7.70483C7.70483 54.7717 7.73343 55.0085 7.79063 55.215C7.84782 55.4184 7.93521 55.5916 8.05278 55.7346C8.17353 55.8744 8.32447 55.9808 8.5056 56.0539C8.68991 56.127 8.90757 56.1635 9.15861 56.1635C9.29843 56.1635 9.43666 56.154 9.57329 56.1349C9.71311 56.1127 9.84816 56.0857 9.97845 56.0539C10.1087 56.019 10.2327 55.9808 10.3502 55.9395C10.471 55.8982 10.5838 55.8585 10.6887 55.8204L10.927 56.4638ZM10.3693 53.847C10.3439 53.3322 10.2199 52.9573 9.99751 52.7221C9.77825 52.4838 9.46367 52.3647 9.05375 52.3647C8.64383 52.3647 8.33083 52.4838 8.11475 52.7221C7.90184 52.9573 7.77315 53.3322 7.72866 53.847H10.3693Z" fill="#2A5985"/>
<path d="M16.1797 56.4638C15.8269 56.6037 15.4949 56.7037 15.1835 56.7641C14.8752 56.8245 14.5988 56.8547 14.3541 56.8547C13.9791 56.8547 13.6518 56.7959 13.3722 56.6783C13.0926 56.5576 12.859 56.3892 12.6715 56.1731C12.4872 55.957 12.3474 55.6996 12.2521 55.4009C12.1599 55.099 12.1138 54.767 12.1138 54.4047C12.1138 54.1823 12.1297 53.9598 12.1615 53.7374C12.1933 53.515 12.2441 53.3036 12.314 53.1035C12.3839 52.9001 12.4745 52.711 12.5857 52.5362C12.7001 52.3615 12.8383 52.2105 13.0004 52.0834C13.1625 51.9563 13.3515 51.8562 13.5676 51.7831C13.7837 51.7101 14.03 51.6735 14.3064 51.6735C15.015 51.6735 15.5489 51.8959 15.908 52.3408C16.267 52.7825 16.4466 53.4165 16.4466 54.2426V54.5048H12.9575C12.9575 54.7717 12.9861 55.0085 13.0433 55.215C13.1005 55.4184 13.1879 55.5916 13.3055 55.7346C13.4262 55.8744 13.5771 55.9808 13.7583 56.0539C13.9426 56.127 14.1602 56.1635 14.4113 56.1635C14.5511 56.1635 14.6893 56.154 14.826 56.1349C14.9658 56.1127 15.1008 56.0857 15.2311 56.0539C15.3614 56.019 15.4853 55.9808 15.6029 55.9395C15.7237 55.8982 15.8365 55.8585 15.9413 55.8204L16.1797 56.4638ZM15.622 53.847C15.5966 53.3322 15.4726 52.9573 15.2502 52.7221C15.0309 52.4838 14.7163 52.3647 14.3064 52.3647C13.8965 52.3647 13.5835 52.4838 13.3674 52.7221C13.1545 52.9573 13.0258 53.3322 12.9813 53.847H15.622Z" fill="#2A5985"/>
<path d="M18.5343 58.6469H17.7145V53.6516C17.7145 53.0987 17.7065 52.7348 17.6906 52.5601C17.6747 52.344 17.6382 52.112 17.581 51.8642L18.3722 51.6878C18.4263 51.8658 18.466 52.0453 18.4914 52.2264C18.5232 52.4489 18.5407 52.6205 18.5438 52.7412H18.6153C18.7806 52.398 18.9633 52.1454 19.1635 51.9833C19.405 51.7768 19.7037 51.6735 20.0596 51.6735C20.371 51.6735 20.6395 51.7418 20.8651 51.8785C21.0907 52.0119 21.2655 52.1994 21.3894 52.4409C21.5165 52.6824 21.6087 52.9478 21.6659 53.2369C21.7263 53.5261 21.7564 53.8454 21.7564 54.195C21.7564 54.589 21.7151 54.9433 21.6325 55.2579C21.5531 55.5725 21.4291 55.8521 21.2607 56.0968C21.0923 56.3383 20.8667 56.5258 20.5839 56.6593C20.3011 56.7895 19.969 56.8547 19.5877 56.8547C19.289 56.8547 18.9379 56.815 18.5343 56.7355V58.6469ZM18.5343 53.7946V56.011C18.8934 56.1063 19.2239 56.154 19.5257 56.154C19.7831 56.154 20.004 56.1079 20.1883 56.0158C20.3758 55.9205 20.5219 55.7886 20.6268 55.6202C20.7317 55.4486 20.8079 55.2579 20.8556 55.0482C20.9032 54.8385 20.9271 54.6033 20.9271 54.3427C20.9271 54.1648 20.9223 54.0091 20.9128 53.8756C20.9064 53.739 20.8921 53.5928 20.8699 53.4371C20.8508 53.2782 20.819 53.1432 20.7745 53.032C20.7301 52.9207 20.6745 52.8175 20.6077 52.7221C20.541 52.6268 20.4536 52.5553 20.3456 52.5076C20.2407 52.4568 20.1184 52.4314 19.9785 52.4314C19.6417 52.4314 19.3494 52.5664 19.1015 52.8365C18.9236 53.0336 18.7345 53.3529 18.5343 53.7946Z" fill="#2A5985"/>
<path d="M26.6087 58.6469H25.7889V53.6516C25.7889 53.0987 25.781 52.7348 25.7651 52.5601C25.7492 52.344 25.7126 52.112 25.6554 51.8642L26.4467 51.6878C26.5007 51.8658 26.5404 52.0453 26.5658 52.2264C26.5976 52.4489 26.6151 52.6205 26.6183 52.7412H26.6898C26.855 52.398 27.0377 52.1454 27.2379 51.9833C27.4794 51.7768 27.7781 51.6735 28.134 51.6735C28.4454 51.6735 28.7139 51.7418 28.9396 51.8785C29.1652 52.0119 29.3399 52.1994 29.4639 52.4409C29.591 52.6824 29.6831 52.9478 29.7403 53.2369C29.8007 53.5261 29.8309 53.8454 29.8309 54.195C29.8309 54.589 29.7896 54.9433 29.707 55.2579C29.6275 55.5725 29.5036 55.8521 29.3352 56.0968C29.1668 56.3383 28.9411 56.5258 28.6583 56.6593C28.3755 56.7895 28.0435 56.8547 27.6621 56.8547C27.3634 56.8547 27.0123 56.815 26.6087 56.7355V58.6469ZM26.6087 53.7946V56.011C26.9678 56.1063 27.2983 56.154 27.6002 56.154C27.8576 56.154 28.0784 56.1079 28.2627 56.0158C28.4502 55.9205 28.5964 55.7886 28.7012 55.6202C28.8061 55.4486 28.8824 55.2579 28.93 55.0482C28.9777 54.8385 29.0015 54.6033 29.0015 54.3427C29.0015 54.1648 28.9967 54.0091 28.9872 53.8756C28.9809 53.739 28.9666 53.5928 28.9443 53.4371C28.9253 53.2782 28.8935 53.1432 28.849 53.032C28.8045 52.9207 28.7489 52.8175 28.6822 52.7221C28.6154 52.6268 28.528 52.5553 28.42 52.5076C28.3151 52.4568 28.1928 52.4314 28.053 52.4314C27.7162 52.4314 27.4238 52.5664 27.1759 52.8365C26.998 53.0336 26.8089 53.3529 26.6087 53.7946Z" fill="#2A5985"/>
<path d="M31.9996 52.9319C32.0981 52.7348 32.203 52.5569 32.3142 52.398C32.4286 52.2391 32.5541 52.1041 32.6908 51.9929C32.8147 51.8848 32.9513 51.8054 33.1007 51.7545C33.25 51.7005 33.4201 51.6735 33.6107 51.6735C33.6743 51.6735 33.7474 51.6767 33.83 51.683C33.9158 51.6894 33.9968 51.7005 34.0731 51.7164C34.0604 51.8753 34.0445 52.0246 34.0254 52.1645C34.0095 52.3043 33.9873 52.4457 33.9587 52.5887C33.7998 52.5601 33.6536 52.5394 33.5201 52.5267C33.3899 52.514 33.2659 52.5172 33.1484 52.5362C33.0085 52.5617 32.8862 52.6093 32.7813 52.6792C32.6797 52.746 32.5843 52.8365 32.4954 52.9509C32.4096 53.0621 32.3253 53.1972 32.2427 53.3561C32.1601 53.5118 32.0695 53.6913 31.971 53.8947V56.7403H31.1512V53.685C31.1512 53.4848 31.148 53.3084 31.1417 53.1559C31.1385 53.0034 31.129 52.8588 31.1131 52.7221C31.1004 52.5823 31.0797 52.4457 31.0511 52.3122C31.0225 52.1756 30.9844 52.0246 30.9367 51.8594C31.0702 51.8244 31.2005 51.7927 31.3276 51.7641C31.4578 51.7355 31.5897 51.7085 31.7232 51.683C31.7677 51.8102 31.8026 51.923 31.828 52.0215C31.8566 52.12 31.8789 52.2169 31.8948 52.3122C31.9107 52.4044 31.9218 52.4997 31.9281 52.5982C31.9377 52.6935 31.9472 52.8048 31.9567 52.9319H31.9996Z" fill="#2A5985"/>
<path d="M36.9282 51.6735C37.0839 51.6735 37.246 51.6862 37.4144 51.7116C37.5828 51.7339 37.748 51.7784 37.9101 51.8451C38.0722 51.915 38.2247 52.0103 38.3677 52.1311C38.5138 52.2487 38.6425 52.4028 38.7538 52.5934C38.865 52.7873 38.9524 53.0208 39.0159 53.2941C39.0795 53.5642 39.1112 53.8867 39.1112 54.2617C39.1112 54.6367 39.0795 54.9608 39.0159 55.2341C38.9524 55.5042 38.865 55.7346 38.7538 55.9252C38.6425 56.1191 38.5138 56.2764 38.3677 56.3971C38.2247 56.5179 38.0722 56.6116 37.9101 56.6783C37.748 56.7482 37.5828 56.7943 37.4144 56.8166C37.246 56.842 37.0839 56.8547 36.9282 56.8547C36.7757 56.8547 36.6152 56.842 36.4468 56.8166C36.2815 56.7943 36.1179 56.7482 35.9558 56.6783C35.7938 56.6116 35.6412 56.5179 35.4982 56.3971C35.3552 56.2764 35.2281 56.1191 35.1169 55.9252C35.0057 55.7346 34.9183 55.5042 34.8548 55.2341C34.7912 54.9608 34.7594 54.6367 34.7594 54.2617C34.7594 53.8867 34.7912 53.5642 34.8548 53.2941C34.9183 53.0208 35.0057 52.7873 35.1169 52.5934C35.2281 52.4028 35.3552 52.2487 35.4982 52.1311C35.6412 52.0103 35.7938 51.915 35.9558 51.8451C36.1179 51.7784 36.2815 51.7339 36.4468 51.7116C36.612 51.6862 36.7725 51.6735 36.9282 51.6735ZM36.9282 52.3456C36.7471 52.3456 36.5755 52.3742 36.4134 52.4314C36.2545 52.4886 36.1147 52.5887 35.994 52.7317C35.87 52.8778 35.7715 53.0733 35.6984 53.318C35.6254 53.5626 35.5888 53.8772 35.5888 54.2617C35.5888 54.643 35.6254 54.9576 35.6984 55.2055C35.7715 55.4502 35.87 55.644 35.994 55.787C36.1147 55.9332 36.2545 56.0349 36.4134 56.092C36.5755 56.1461 36.7471 56.1731 36.9282 56.1731C37.1125 56.1731 37.2857 56.1461 37.4477 56.092C37.613 56.0349 37.7576 55.9332 37.8815 55.787C38.0054 55.644 38.1023 55.4502 38.1722 55.2055C38.2453 54.9576 38.2819 54.643 38.2819 54.2617C38.2819 53.8772 38.2453 53.5626 38.1722 53.318C38.1023 53.0733 38.0054 52.8778 37.8815 52.7317C37.7576 52.5887 37.613 52.4886 37.4477 52.4314C37.2857 52.3742 37.1125 52.3456 36.9282 52.3456Z" fill="#2A5985"/>
<path d="M41.3563 49.8622C41.5024 49.8622 41.6295 49.9131 41.7376 50.0148C41.8424 50.126 41.8949 50.2563 41.8949 50.4056C41.8949 50.5582 41.8424 50.6868 41.7376 50.7917C41.6295 50.8997 41.5024 50.9538 41.3563 50.9538C41.2037 50.9538 41.0735 50.8997 40.9654 50.7917C40.8574 50.69 40.8033 50.5613 40.8033 50.4056C40.8033 50.2531 40.8574 50.1228 40.9654 50.0148C41.0735 49.9131 41.2037 49.8622 41.3563 49.8622ZM40.9416 51.7831H41.7614V56.0539C41.7614 56.6354 41.7026 57.0771 41.5851 57.379C41.4738 57.6682 41.2403 58.0098 40.8844 58.4038L40.6127 58.7041L40.0645 58.2513C40.3251 57.9367 40.4983 57.7063 40.5841 57.5601C40.5873 57.5538 40.6238 57.4855 40.6937 57.3552C40.859 57.012 40.9416 56.5989 40.9416 56.1159V51.7831Z" fill="#2A5985"/>
<path d="M47.2476 56.4638C46.8949 56.6037 46.5629 56.7037 46.2514 56.7641C45.9432 56.8245 45.6668 56.8547 45.4221 56.8547C45.0471 56.8547 44.7198 56.7959 44.4402 56.6783C44.1605 56.5576 43.927 56.3892 43.7395 56.1731C43.5552 55.957 43.4154 55.6996 43.3201 55.4009C43.2279 55.099 43.1818 54.767 43.1818 54.4047C43.1818 54.1823 43.1977 53.9598 43.2295 53.7374C43.2613 53.515 43.3121 53.3036 43.382 53.1035C43.4519 52.9001 43.5425 52.711 43.6537 52.5362C43.7681 52.3615 43.9063 52.2105 44.0684 52.0834C44.2305 51.9563 44.4195 51.8562 44.6356 51.7831C44.8517 51.7101 45.098 51.6735 45.3744 51.6735C46.083 51.6735 46.6169 51.8959 46.976 52.3408C47.335 52.7825 47.5146 53.4165 47.5146 54.2426V54.5048H44.0255C44.0255 54.7717 44.0541 55.0085 44.1113 55.215C44.1685 55.4184 44.2559 55.5916 44.3735 55.7346C44.4942 55.8744 44.6451 55.9808 44.8263 56.0539C45.0106 56.127 45.2282 56.1635 45.4793 56.1635C45.6191 56.1635 45.7573 56.154 45.894 56.1349C46.0338 56.1127 46.1688 56.0857 46.2991 56.0539C46.4294 56.019 46.5533 55.9808 46.6709 55.9395C46.7917 55.8982 46.9045 55.8585 47.0093 55.8204L47.2476 56.4638ZM46.69 53.847C46.6645 53.3322 46.5406 52.9573 46.3182 52.7221C46.0989 52.4838 45.7843 52.3647 45.3744 52.3647C44.9645 52.3647 44.6515 52.4838 44.4354 52.7221C44.2225 52.9573 44.0938 53.3322 44.0493 53.847H46.69Z" fill="#2A5985"/>
<path d="M52.2572 56.5639C52.0094 56.6497 51.744 56.7196 51.4612 56.7737C51.1816 56.8277 50.9163 56.8547 50.6652 56.8547C50.2839 56.8547 49.9534 56.7991 49.6738 56.6879C49.3942 56.5766 49.1622 56.4146 48.9779 56.2017C48.7968 55.9888 48.6617 55.7282 48.5727 55.42C48.4838 55.1086 48.4393 54.7543 48.4393 54.357C48.4393 53.9249 48.4933 53.542 48.6013 53.2083C48.7125 52.8747 48.8714 52.595 49.078 52.3694C49.2877 52.1406 49.5419 51.9674 49.8406 51.8499C50.1425 51.7323 50.4841 51.6735 50.8654 51.6735C51.0592 51.6735 51.2563 51.6942 51.4565 51.7355C51.6567 51.7736 51.86 51.8229 52.0666 51.8832L51.8616 52.5505C51.6964 52.4965 51.5423 52.4536 51.3993 52.4218C51.2594 52.3901 51.1117 52.3742 50.956 52.3742C50.4158 52.3742 49.9995 52.5315 49.7072 52.8461C49.4148 53.1575 49.2686 53.6294 49.2686 54.2617C49.2686 54.5572 49.2893 54.8226 49.3306 55.0577C49.3751 55.2897 49.4514 55.4883 49.5594 55.6535C49.6706 55.8156 49.82 55.9395 50.0074 56.0253C50.1981 56.1111 50.4396 56.154 50.732 56.154C50.9226 56.154 51.1276 56.1302 51.3468 56.0825C51.5693 56.0317 51.8044 55.9697 52.0523 55.8966L52.2572 56.5639Z" fill="#2A5985"/>
<path d="M53.8731 50.6487H54.6929V51.7831H56.3612V52.4743H54.6929V55.3199C54.6929 55.5105 54.6977 55.6567 54.7072 55.7584C54.7199 55.8569 54.7485 55.9348 54.793 55.992C54.8756 56.1063 55.0424 56.1635 55.2935 56.1635C55.4333 56.1635 55.5684 56.1492 55.6986 56.1206C55.8321 56.092 55.9544 56.0603 56.0657 56.0253C56.1546 56.2192 56.2357 56.4321 56.3087 56.664C55.9338 56.7911 55.5556 56.8547 55.1743 56.8547C54.8979 56.8547 54.6754 56.8229 54.507 56.7594C54.3418 56.699 54.2115 56.5989 54.1162 56.4591C54.0177 56.3129 53.9525 56.1381 53.9207 55.9348C53.889 55.7314 53.8731 55.4502 53.8731 55.0911V52.4743H53.1581V51.7831H53.8731V50.6487Z" fill="#2A5985"/>
<path d="M59.0161 51.6735C59.2767 51.6735 59.5373 51.7005 59.7978 51.7545C60.0616 51.8086 60.3062 51.8832 60.5319 51.9786C60.4874 52.0802 60.4413 52.1803 60.3936 52.2789C60.346 52.3774 60.2935 52.4743 60.2363 52.5696C60.1569 52.5378 60.0679 52.5061 59.9694 52.4743C59.8741 52.4425 59.7724 52.4155 59.6644 52.3932C59.5595 52.371 59.4499 52.3535 59.3355 52.3408C59.2243 52.3249 59.1146 52.317 59.0066 52.317C58.889 52.317 58.7746 52.3297 58.6634 52.3551C58.5554 52.3774 58.4584 52.4155 58.3726 52.4695C58.29 52.5235 58.2233 52.595 58.1724 52.684C58.1216 52.7698 58.0962 52.8778 58.0962 53.0081C58.0962 53.1416 58.1248 53.2544 58.182 53.3465C58.2392 53.4355 58.317 53.5102 58.4155 53.5706C58.514 53.631 58.6284 53.6818 58.7587 53.7231C58.8922 53.7644 59.0336 53.8025 59.1829 53.8375C59.4149 53.8947 59.631 53.9598 59.8312 54.0329C60.0314 54.1028 60.2046 54.195 60.3507 54.3094C60.4969 54.4238 60.6113 54.5652 60.6939 54.7336C60.7765 54.902 60.8178 55.1101 60.8178 55.358C60.8178 55.6186 60.7654 55.8426 60.6606 56.0301C60.5589 56.2176 60.4191 56.3733 60.2411 56.4972C60.0663 56.618 59.8614 56.7069 59.6262 56.7641C59.3911 56.8245 59.14 56.8547 58.8731 56.8547C58.7333 56.8547 58.5887 56.8452 58.4394 56.8261C58.2932 56.8102 58.147 56.7848 58.0009 56.7498C57.8579 56.718 57.7164 56.6783 57.5766 56.6307C57.4368 56.583 57.3049 56.5306 57.181 56.4734C57.2255 56.3717 57.2716 56.2732 57.3192 56.1778C57.3701 56.0793 57.4225 55.9824 57.4765 55.8871C57.5814 55.9316 57.6926 55.9745 57.8102 56.0158C57.9278 56.0539 58.0485 56.0873 58.1724 56.1159C58.2964 56.1445 58.4187 56.1683 58.5395 56.1874C58.6602 56.2033 58.7762 56.2112 58.8874 56.2112C59.0272 56.2112 59.1623 56.1953 59.2926 56.1635C59.426 56.1318 59.5436 56.0825 59.6453 56.0158C59.7502 55.9459 59.8328 55.8569 59.8932 55.7489C59.9567 55.6408 59.9885 55.5105 59.9885 55.358C59.9885 55.215 59.9583 55.0974 59.8979 55.0053C59.8407 54.9131 59.7629 54.8369 59.6644 54.7765C59.5658 54.7129 59.4499 54.6621 59.3164 54.624C59.1861 54.5827 59.0479 54.5445 58.9017 54.5096C58.6793 54.4556 58.468 54.3936 58.2678 54.3237C58.0708 54.2538 57.8976 54.1632 57.7482 54.052C57.6021 53.9376 57.4845 53.7978 57.3955 53.6325C57.3097 53.4641 57.2668 53.256 57.2668 53.0081C57.2668 52.7762 57.3145 52.576 57.4098 52.4076C57.5051 52.2391 57.6322 52.1009 57.7911 51.9929C57.9532 51.8848 58.1391 51.8054 58.3488 51.7545C58.5617 51.7005 58.7841 51.6735 59.0161 51.6735Z" fill="#2A5985"/>
<path d="M64.8646 56.7403V53.6754C64.8646 53.1861 64.8535 52.8175 64.8312 52.5696C64.8185 52.3758 64.7772 52.139 64.7073 51.8594L65.489 51.683C65.5494 51.8737 65.5923 52.058 65.6177 52.236C65.6304 52.3027 65.6463 52.4759 65.6654 52.7555H65.7655C65.9275 52.4314 66.1309 52.1772 66.3756 51.9929C66.6393 51.78 66.9396 51.6735 67.2764 51.6735C67.4671 51.6735 67.6514 51.7085 67.8294 51.7784C68.0073 51.8451 68.1567 51.9404 68.2774 52.0644C68.4585 52.2423 68.5872 52.5061 68.6635 52.8556H68.7207C68.9114 52.487 69.1354 52.2042 69.3928 52.0072C69.6692 51.7847 69.979 51.6735 70.3222 51.6735C70.7385 51.6735 71.0579 51.7895 71.2803 52.0215C71.4741 52.2153 71.6108 52.5108 71.6902 52.908C71.7474 53.1972 71.776 53.6008 71.776 54.1187V56.7403H70.9562V53.8899C70.9562 53.6389 70.9419 53.4323 70.9133 53.2703C70.8688 53.0192 70.7894 52.8238 70.6749 52.684C70.532 52.5156 70.3318 52.4314 70.0744 52.4314C69.782 52.4314 69.5119 52.5712 69.2641 52.8508C69.1147 53.0192 68.9368 53.2798 68.7302 53.6325C68.7366 53.6866 68.7398 53.766 68.7398 53.8709V56.7403H67.9199V53.8899C67.9199 53.4864 67.8802 53.1765 67.8008 52.9605C67.6673 52.6077 67.4147 52.4314 67.0429 52.4314C66.7569 52.4314 66.4852 52.5744 66.2278 52.8604C66.0785 53.0256 65.8973 53.3005 65.6844 53.685V56.7403H64.8646Z" fill="#2A5985"/>
<path d="M75.0125 51.6735C75.1682 51.6735 75.3302 51.6862 75.4986 51.7116C75.6671 51.7339 75.8323 51.7784 75.9944 51.8451C76.1564 51.915 76.3089 52.0103 76.4519 52.1311C76.5981 52.2487 76.7268 52.4028 76.838 52.5934C76.9492 52.7873 77.0366 53.0208 77.1002 53.2941C77.1637 53.5642 77.1955 53.8867 77.1955 54.2617C77.1955 54.6367 77.1637 54.9608 77.1002 55.2341C77.0366 55.5042 76.9492 55.7346 76.838 55.9252C76.7268 56.1191 76.5981 56.2764 76.4519 56.3971C76.3089 56.5179 76.1564 56.6116 75.9944 56.6783C75.8323 56.7482 75.6671 56.7943 75.4986 56.8166C75.3302 56.842 75.1682 56.8547 75.0125 56.8547C74.8599 56.8547 74.6995 56.842 74.531 56.8166C74.3658 56.7943 74.2022 56.7482 74.0401 56.6783C73.878 56.6116 73.7255 56.5179 73.5825 56.3971C73.4395 56.2764 73.3124 56.1191 73.2012 55.9252C73.09 55.7346 73.0026 55.5042 72.939 55.2341C72.8755 54.9608 72.8437 54.6367 72.8437 54.2617C72.8437 53.8867 72.8755 53.5642 72.939 53.2941C73.0026 53.0208 73.09 52.7873 73.2012 52.5934C73.3124 52.4028 73.4395 52.2487 73.5825 52.1311C73.7255 52.0103 73.878 51.915 74.0401 51.8451C74.2022 51.7784 74.3658 51.7339 74.531 51.7116C74.6963 51.6862 74.8568 51.6735 75.0125 51.6735ZM75.0125 52.3456C74.8313 52.3456 74.6597 52.3742 74.4977 52.4314C74.3388 52.4886 74.199 52.5887 74.0782 52.7317C73.9543 52.8778 73.8558 53.0733 73.7827 53.318C73.7096 53.5626 73.6731 53.8772 73.6731 54.2617C73.6731 54.643 73.7096 54.9576 73.7827 55.2055C73.8558 55.4502 73.9543 55.644 74.0782 55.787C74.199 55.9332 74.3388 56.0349 74.4977 56.092C74.6597 56.1461 74.8313 56.1731 75.0125 56.1731C75.1968 56.1731 75.3699 56.1461 75.532 56.092C75.6973 56.0349 75.8418 55.9332 75.9658 55.787C76.0897 55.644 76.1866 55.4502 76.2565 55.2055C76.3296 54.9576 76.3661 54.643 76.3661 54.2617C76.3661 53.8772 76.3296 53.5626 76.2565 53.318C76.1866 53.0733 76.0897 52.8778 75.9658 52.7317C75.8418 52.5887 75.6973 52.4886 75.532 52.4314C75.3699 52.3742 75.1968 52.3456 75.0125 52.3456Z" fill="#2A5985"/>
<path d="M82.31 51.7831L80.6608 56.7403H79.5645L77.9153 51.7831H78.8018L80.1126 56.1111L81.4234 51.7831H82.31Z" fill="#2A5985"/>
<path d="M83.8305 49.8622C83.9766 49.8622 84.1038 49.9131 84.2118 50.0148C84.3167 50.126 84.3691 50.2563 84.3691 50.4056C84.3691 50.5582 84.3167 50.6868 84.2118 50.7917C84.1038 50.8997 83.9766 50.9538 83.8305 50.9538C83.6779 50.9538 83.5477 50.8997 83.4396 50.7917C83.3316 50.69 83.2776 50.5613 83.2776 50.4056C83.2776 50.2531 83.3316 50.1228 83.4396 50.0148C83.5477 49.9131 83.6779 49.8622 83.8305 49.8622ZM83.411 51.7831H84.2309V56.7403H83.411V51.7831Z" fill="#2A5985"/>
<path d="M85.7847 51.8689L86.576 51.6926C86.6363 51.8832 86.6792 52.0675 86.7047 52.2455C86.7174 52.3313 86.7333 52.5013 86.7523 52.7555H86.8524C87.0272 52.4346 87.2433 52.1788 87.5007 51.9881C87.7835 51.7784 88.0822 51.6735 88.3968 51.6735C88.8702 51.6735 89.2309 51.7879 89.4788 52.0167C89.6917 52.2105 89.8394 52.5076 89.9221 52.908C89.9761 53.1813 90.0031 53.5881 90.0031 54.1283V56.7403H89.1832V53.8995C89.1832 53.426 89.1372 53.0876 89.045 52.8842C88.9084 52.5823 88.6335 52.4314 88.2204 52.4314C87.9281 52.4314 87.6421 52.5712 87.3624 52.8508C87.175 53.0383 86.9748 53.3132 86.7619 53.6754V56.7403H85.942V53.6897C85.942 53.2607 85.9309 52.8906 85.9087 52.5791C85.896 52.3853 85.8546 52.1486 85.7847 51.8689Z" fill="#2A5985"/>
<path d="M94.2453 51.7831C94.3819 51.7831 94.5011 51.7816 94.6027 51.7784C94.7076 51.7752 94.8077 51.7688 94.903 51.7593C94.9984 51.7466 95.0937 51.7291 95.189 51.7069C95.2875 51.6846 95.4019 51.6529 95.5322 51.6115C95.5735 51.7323 95.6132 51.8467 95.6514 51.9547C95.6927 52.0628 95.734 52.174 95.7753 52.2884C95.6736 52.3265 95.5799 52.3567 95.4941 52.379C95.4083 52.4012 95.3225 52.4203 95.2367 52.4361C95.1541 52.4489 95.0699 52.4584 94.9841 52.4647C94.9014 52.4679 94.8125 52.4711 94.7171 52.4743C94.8061 52.6173 94.8744 52.7777 94.9221 52.9557C94.9698 53.1336 94.9936 53.3275 94.9936 53.5372C94.9936 53.8423 94.9475 54.1092 94.8554 54.338C94.7632 54.5636 94.6313 54.7558 94.4597 54.9147C94.2882 55.0736 94.0816 55.1944 93.8401 55.277C93.6018 55.3564 93.3333 55.3961 93.0346 55.3961C92.882 55.3961 92.7375 55.3882 92.6008 55.3723C92.4642 55.3532 92.3339 55.3215 92.21 55.277C92.1814 55.3532 92.1559 55.4311 92.1337 55.5105C92.1146 55.59 92.1051 55.6662 92.1051 55.7393C92.1083 55.8092 92.1226 55.8744 92.148 55.9348C92.1734 55.992 92.2179 56.038 92.2815 56.073C92.3132 56.092 92.3466 56.1079 92.3816 56.1206C92.4165 56.1302 92.4578 56.1397 92.5055 56.1492C92.5563 56.1556 92.6167 56.162 92.6866 56.1683C92.7565 56.1715 92.8407 56.1731 92.9392 56.1731C93.0346 56.1763 93.1458 56.1778 93.2729 56.1778C93.4032 56.1778 93.5541 56.1778 93.7257 56.1778C94.2214 56.1778 94.5964 56.2827 94.8506 56.4924C95.1048 56.699 95.2319 57.0215 95.2319 57.46C95.2319 57.638 95.2033 57.7953 95.1461 57.9319C95.0889 58.0717 95.0095 58.1925 94.9078 58.2942C94.8093 58.3959 94.6917 58.4801 94.5551 58.5468C94.4184 58.6167 94.2707 58.6723 94.1118 58.7136C93.9529 58.7581 93.7861 58.7883 93.6113 58.8042C93.4397 58.8232 93.2665 58.8328 93.0918 58.8328C92.917 58.8328 92.7406 58.8232 92.5627 58.8042C92.3879 58.7851 92.2163 58.7613 92.0479 58.7327C91.8795 58.7041 91.7206 58.6707 91.5713 58.6326C91.4251 58.5976 91.2948 58.5627 91.1804 58.5277C91.2249 58.4197 91.2741 58.3116 91.3282 58.2036C91.3854 58.0956 91.4457 57.9939 91.5093 57.8985C91.7095 57.9557 91.9478 58.0114 92.2243 58.0654C92.5007 58.1194 92.8074 58.1464 93.1442 58.1464C93.2967 58.1464 93.4461 58.1369 93.5922 58.1178C93.7416 58.0987 93.8751 58.0622 93.9926 58.0082C94.1134 57.9573 94.2103 57.8874 94.2834 57.7985C94.3565 57.7127 94.393 57.5998 94.393 57.46C94.393 57.3139 94.366 57.201 94.312 57.1216C94.2611 57.0422 94.1912 56.9834 94.1023 56.9453C94.0133 56.9071 93.9084 56.8849 93.7877 56.8785C93.6669 56.8722 93.5398 56.869 93.4064 56.869H92.7819C92.5945 56.869 92.4181 56.8547 92.2529 56.8261C92.0876 56.7975 91.943 56.7498 91.8191 56.6831C91.6952 56.6132 91.5967 56.5226 91.5236 56.4114C91.4537 56.3002 91.4187 56.1635 91.4187 56.0015C91.4187 55.8458 91.4473 55.6853 91.5045 55.5201C91.5617 55.3517 91.6364 55.1816 91.7285 55.0101C91.5188 54.8575 91.3568 54.6557 91.2424 54.4047C91.1311 54.1537 91.0755 53.8645 91.0755 53.5372C91.0755 53.2385 91.1216 52.9748 91.2138 52.746C91.3091 52.514 91.4426 52.317 91.6142 52.1549C91.7857 51.9929 91.9907 51.8721 92.229 51.7927C92.4674 51.7132 92.7359 51.6735 93.0346 51.6735C93.3142 51.6735 93.5716 51.7101 93.8067 51.7831H94.2453ZM93.0346 52.3313C92.8344 52.3313 92.6628 52.3615 92.5198 52.4218C92.3768 52.4822 92.2592 52.5664 92.1671 52.6745C92.0781 52.7793 92.0114 52.9064 91.9669 53.0558C91.9256 53.202 91.9049 53.3624 91.9049 53.5372C91.9049 53.7152 91.9256 53.8772 91.9669 54.0234C92.0114 54.1696 92.0797 54.2967 92.1718 54.4047C92.264 54.5096 92.38 54.5922 92.5198 54.6526C92.6628 54.7098 92.8344 54.7384 93.0346 54.7384C93.2348 54.7384 93.4064 54.7098 93.5493 54.6526C93.6923 54.5922 93.8083 54.5096 93.8973 54.4047C93.9895 54.2967 94.0562 54.1696 94.0975 54.0234C94.142 53.874 94.1642 53.712 94.1642 53.5372C94.1642 53.3624 94.142 53.202 94.0975 53.0558C94.0562 52.9064 93.9895 52.7793 93.8973 52.6745C93.8083 52.5664 93.6923 52.4822 93.5493 52.4218C93.4064 52.3615 93.2348 52.3313 93.0346 52.3313Z" fill="#2A5985"/>
<path d="M99.9889 49.8622C100.135 49.8622 100.262 49.9131 100.37 50.0148C100.475 50.126 100.527 50.2563 100.527 50.4056C100.527 50.5582 100.475 50.6868 100.37 50.7917C100.262 50.8997 100.135 50.9538 99.9889 50.9538C99.8363 50.9538 99.7061 50.8997 99.598 50.7917C99.49 50.69 99.436 50.5613 99.436 50.4056C99.436 50.2531 99.49 50.1228 99.598 50.0148C99.7061 49.9131 99.8363 49.8622 99.9889 49.8622ZM99.5694 51.7831H100.389V56.7403H99.5694V51.7831Z" fill="#2A5985"/>
<path d="M101.943 51.8689L102.734 51.6926C102.795 51.8832 102.838 52.0675 102.863 52.2455C102.876 52.3313 102.892 52.5013 102.911 52.7555H103.011C103.186 52.4346 103.402 52.1788 103.659 51.9881C103.942 51.7784 104.241 51.6735 104.555 51.6735C105.029 51.6735 105.389 51.7879 105.637 52.0167C105.85 52.2105 105.998 52.5076 106.08 52.908C106.134 53.1813 106.161 53.5881 106.161 54.1283V56.7403H105.342V53.8995C105.342 53.426 105.296 53.0876 105.203 52.8842C105.067 52.5823 104.792 52.4314 104.379 52.4314C104.086 52.4314 103.8 52.5712 103.521 52.8508C103.333 53.0383 103.133 53.3132 102.92 53.6754V56.7403H102.1V53.6897C102.1 53.2607 102.089 52.8906 102.067 52.5791C102.054 52.3853 102.013 52.1486 101.943 51.8689Z" fill="#2A5985"/>
<path d="M111.147 58.6469H110.327V53.6516C110.327 53.0987 110.319 52.7348 110.304 52.5601C110.288 52.344 110.251 52.112 110.194 51.8642L110.985 51.6878C111.039 51.8658 111.079 52.0453 111.104 52.2264C111.136 52.4489 111.154 52.6205 111.157 52.7412H111.228C111.394 52.398 111.576 52.1454 111.776 51.9833C112.018 51.7768 112.317 51.6735 112.673 51.6735C112.984 51.6735 113.252 51.7418 113.478 51.8785C113.704 52.0119 113.878 52.1994 114.002 52.4409C114.129 52.6824 114.222 52.9478 114.279 53.2369C114.339 53.5261 114.369 53.8454 114.369 54.195C114.369 54.589 114.328 54.9433 114.245 55.2579C114.166 55.5725 114.042 55.8521 113.874 56.0968C113.705 56.3383 113.48 56.5258 113.197 56.6593C112.914 56.7895 112.582 56.8547 112.201 56.8547C111.902 56.8547 111.551 56.815 111.147 56.7355V58.6469ZM111.147 53.7946V56.011C111.506 56.1063 111.837 56.154 112.139 56.154C112.396 56.154 112.617 56.1079 112.801 56.0158C112.989 55.9205 113.135 55.7886 113.24 55.6202C113.345 55.4486 113.421 55.2579 113.469 55.0482C113.516 54.8385 113.54 54.6033 113.54 54.3427C113.54 54.1648 113.535 54.0091 113.526 53.8756C113.519 53.739 113.505 53.5928 113.483 53.4371C113.464 53.2782 113.432 53.1432 113.387 53.032C113.343 52.9207 113.287 52.8175 113.221 52.7221C113.154 52.6268 113.067 52.5553 112.959 52.5076C112.854 52.4568 112.731 52.4314 112.591 52.4314C112.255 52.4314 111.962 52.5664 111.714 52.8365C111.536 53.0336 111.347 53.3529 111.147 53.7946Z" fill="#2A5985"/>
<path d="M119.355 56.4638C119.002 56.6037 118.67 56.7037 118.359 56.7641C118.051 56.8245 117.774 56.8547 117.53 56.8547C117.155 56.8547 116.827 56.7959 116.548 56.6783C116.268 56.5576 116.034 56.3892 115.847 56.1731C115.663 55.957 115.523 55.6996 115.428 55.4009C115.335 55.099 115.289 54.767 115.289 54.4047C115.289 54.1823 115.305 53.9598 115.337 53.7374C115.369 53.515 115.42 53.3036 115.49 53.1035C115.559 52.9001 115.65 52.711 115.761 52.5362C115.876 52.3615 116.014 52.2105 116.176 52.0834C116.338 51.9563 116.527 51.8562 116.743 51.7831C116.959 51.7101 117.205 51.6735 117.482 51.6735C118.191 51.6735 118.724 51.8959 119.083 52.3408C119.443 52.7825 119.622 53.4165 119.622 54.2426V54.5048H116.133C116.133 54.7717 116.162 55.0085 116.219 55.215C116.276 55.4184 116.363 55.5916 116.481 55.7346C116.602 55.8744 116.753 55.9808 116.934 56.0539C117.118 56.127 117.336 56.1635 117.587 56.1635C117.727 56.1635 117.865 56.154 118.001 56.1349C118.141 56.1127 118.276 56.0857 118.407 56.0539C118.537 56.019 118.661 55.9808 118.778 55.9395C118.899 55.8982 119.012 55.8585 119.117 55.8204L119.355 56.4638ZM118.797 53.847C118.772 53.3322 118.648 52.9573 118.426 52.7221C118.206 52.4838 117.892 52.3647 117.482 52.3647C117.072 52.3647 116.759 52.4838 116.543 52.7221C116.33 52.9573 116.201 53.3322 116.157 53.847H118.797Z" fill="#2A5985"/>
<path d="M121.791 52.9319C121.889 52.7348 121.994 52.5569 122.105 52.398C122.22 52.2391 122.345 52.1041 122.482 51.9929C122.606 51.8848 122.743 51.8054 122.892 51.7545C123.041 51.7005 123.211 51.6735 123.402 51.6735C123.465 51.6735 123.539 51.6767 123.621 51.683C123.707 51.6894 123.788 51.7005 123.864 51.7164C123.852 51.8753 123.836 52.0246 123.817 52.1645C123.801 52.3043 123.778 52.4457 123.75 52.5887C123.591 52.5601 123.445 52.5394 123.311 52.5267C123.181 52.514 123.057 52.5172 122.94 52.5362C122.8 52.5617 122.677 52.6093 122.573 52.6792C122.471 52.746 122.376 52.8365 122.287 52.9509C122.201 53.0621 122.117 53.1972 122.034 53.3561C121.951 53.5118 121.861 53.6913 121.762 53.8947V56.7403H120.942V53.685C120.942 53.4848 120.939 53.3084 120.933 53.1559C120.93 53.0034 120.92 52.8588 120.904 52.7221C120.892 52.5823 120.871 52.4457 120.842 52.3122C120.814 52.1756 120.776 52.0246 120.728 51.8594C120.861 51.8244 120.992 51.7927 121.119 51.7641C121.249 51.7355 121.381 51.7085 121.514 51.683C121.559 51.8102 121.594 51.923 121.619 52.0215C121.648 52.12 121.67 52.2169 121.686 52.3122C121.702 52.4044 121.713 52.4997 121.719 52.5982C121.729 52.6935 121.738 52.8048 121.748 52.9319H121.791Z" fill="#2A5985"/>
<path d="M125.394 51.7831V51.2445C125.394 51.0094 125.417 50.806 125.461 50.6344C125.506 50.4628 125.583 50.3039 125.695 50.1578C125.806 50.0116 125.968 49.902 126.181 49.8289C126.397 49.7526 126.662 49.7145 126.977 49.7145C127.387 49.7145 127.874 49.7828 128.44 49.9194L128.292 50.5915C127.758 50.4803 127.352 50.4247 127.072 50.4247C126.935 50.4247 126.819 50.4326 126.724 50.4485C126.632 50.4612 126.554 50.4898 126.491 50.5343C126.427 50.5756 126.378 50.6201 126.343 50.6678C126.308 50.7154 126.281 50.7869 126.262 50.8823C126.246 50.9776 126.235 51.0682 126.228 51.154C126.225 51.2398 126.224 51.3589 126.224 51.5114V51.7831H127.816V52.4743H126.224V56.0491H127.816V56.7403H124.565V56.0491H125.394V52.4743H124.565V51.7831H125.394Z" fill="#2A5985"/>
<path d="M132.949 56.4638C132.596 56.6037 132.264 56.7037 131.953 56.7641C131.645 56.8245 131.368 56.8547 131.124 56.8547C130.749 56.8547 130.421 56.7959 130.142 56.6783C129.862 56.5576 129.629 56.3892 129.441 56.1731C129.257 55.957 129.117 55.6996 129.022 55.4009C128.929 55.099 128.883 54.767 128.883 54.4047C128.883 54.1823 128.899 53.9598 128.931 53.7374C128.963 53.515 129.014 53.3036 129.084 53.1035C129.153 52.9001 129.244 52.711 129.355 52.5362C129.47 52.3615 129.608 52.2105 129.77 52.0834C129.932 51.9563 130.121 51.8562 130.337 51.7831C130.553 51.7101 130.799 51.6735 131.076 51.6735C131.785 51.6735 132.318 51.8959 132.677 52.3408C133.037 52.7825 133.216 53.4165 133.216 54.2426V54.5048H129.727C129.727 54.7717 129.756 55.0085 129.813 55.215C129.87 55.4184 129.957 55.5916 130.075 55.7346C130.196 55.8744 130.347 55.9808 130.528 56.0539C130.712 56.127 130.93 56.1635 131.181 56.1635C131.321 56.1635 131.459 56.154 131.595 56.1349C131.735 56.1127 131.87 56.0857 132.001 56.0539C132.131 56.019 132.255 55.9808 132.372 55.9395C132.493 55.8982 132.606 55.8585 132.711 55.8204L132.949 56.4638ZM132.391 53.847C132.366 53.3322 132.242 52.9573 132.02 52.7221C131.8 52.4838 131.486 52.3647 131.076 52.3647C130.666 52.3647 130.353 52.4838 130.137 52.7221C129.924 52.9573 129.795 53.3322 129.751 53.847H132.391Z" fill="#2A5985"/>
<path d="M137.959 56.5639C137.711 56.6497 137.446 56.7196 137.163 56.7737C136.883 56.8277 136.618 56.8547 136.367 56.8547C135.985 56.8547 135.655 56.7991 135.375 56.6879C135.096 56.5766 134.864 56.4146 134.679 56.2017C134.498 55.9888 134.363 55.7282 134.274 55.42C134.185 55.1086 134.141 54.7543 134.141 54.357C134.141 53.9249 134.195 53.542 134.303 53.2083C134.414 52.8747 134.573 52.595 134.779 52.3694C134.989 52.1406 135.243 51.9674 135.542 51.8499C135.844 51.7323 136.186 51.6735 136.567 51.6735C136.761 51.6735 136.958 51.6942 137.158 51.7355C137.358 51.7736 137.562 51.8229 137.768 51.8832L137.563 52.5505C137.398 52.4965 137.244 52.4536 137.101 52.4218C136.961 52.3901 136.813 52.3742 136.658 52.3742C136.117 52.3742 135.701 52.5315 135.409 52.8461C135.116 53.1575 134.97 53.6294 134.97 54.2617C134.97 54.5572 134.991 54.8226 135.032 55.0577C135.077 55.2897 135.153 55.4883 135.261 55.6535C135.372 55.8156 135.521 55.9395 135.709 56.0253C135.9 56.1111 136.141 56.154 136.433 56.154C136.624 56.154 136.829 56.1302 137.048 56.0825C137.271 56.0317 137.506 55.9697 137.754 55.8966L137.959 56.5639Z" fill="#2A5985"/>
<path d="M139.575 50.6487H140.394V51.7831H142.063V52.4743H140.394V55.3199C140.394 55.5105 140.399 55.6567 140.409 55.7584C140.421 55.8569 140.45 55.9348 140.495 55.992C140.577 56.1063 140.744 56.1635 140.995 56.1635C141.135 56.1635 141.27 56.1492 141.4 56.1206C141.534 56.092 141.656 56.0603 141.767 56.0253C141.856 56.2192 141.937 56.4321 142.01 56.664C141.635 56.7911 141.257 56.8547 140.876 56.8547C140.599 56.8547 140.377 56.8229 140.209 56.7594C140.043 56.699 139.913 56.5989 139.818 56.4591C139.719 56.3129 139.654 56.1381 139.622 55.9348C139.59 55.7314 139.575 55.4502 139.575 55.0911V52.4743H138.86V51.7831H139.575V50.6487Z" fill="#2A5985"/>
<path d="M146.3 52.6602L146.09 51.9929C146.624 51.78 147.184 51.6735 147.768 51.6735C148.28 51.6735 148.671 51.7593 148.941 51.9309C149.249 52.1279 149.403 52.4632 149.403 52.9366V54.8861C149.403 55.1467 149.406 55.4136 149.413 55.6869C149.416 55.849 149.432 56.0174 149.46 56.1921C149.486 56.3574 149.519 56.5147 149.56 56.664L148.779 56.8356C148.706 56.6227 148.66 56.3844 148.64 56.1206L148.545 56.1111C148.151 56.6068 147.649 56.8547 147.039 56.8547C146.594 56.8547 146.237 56.7323 145.966 56.4877C145.696 56.2398 145.561 55.8919 145.561 55.4438C145.561 55.1101 145.634 54.8369 145.781 54.624C145.93 54.4111 146.14 54.2315 146.41 54.0854C146.836 53.8534 147.431 53.7374 148.197 53.7374C148.299 53.7374 148.436 53.7406 148.607 53.7469V53.0224C148.607 52.7936 148.537 52.6284 148.397 52.5267C148.258 52.425 148.038 52.3742 147.74 52.3742C147.304 52.3742 146.824 52.4695 146.3 52.6602ZM148.607 55.3485V54.3475C148.521 54.3412 148.396 54.338 148.231 54.338C147.951 54.338 147.694 54.3618 147.458 54.4095C147.109 54.4794 146.837 54.5906 146.643 54.7431C146.453 54.8925 146.357 55.1086 146.357 55.3914C146.357 55.8998 146.634 56.154 147.187 56.154C147.473 56.154 147.74 56.0777 147.987 55.9252C148.191 55.7981 148.397 55.6059 148.607 55.3485Z" fill="#2A5985"/>
<path d="M151.662 54.8146C151.662 55.0752 151.666 55.2945 151.672 55.4724C151.678 55.6472 151.686 55.8013 151.696 55.9348C151.705 56.0682 151.72 56.189 151.739 56.297C151.761 56.405 151.788 56.5242 151.82 56.6545C151.686 56.6894 151.553 56.7212 151.419 56.7498C151.286 56.7816 151.152 56.8086 151.019 56.8309C150.955 56.6243 150.909 56.4352 150.881 56.2636C150.855 56.092 150.843 55.9236 150.843 55.7584V49.8861H151.662V54.8146Z" fill="#2A5985"/>
<path d="M153.726 49.8622C153.872 49.8622 154 49.9131 154.108 50.0148C154.212 50.126 154.265 50.2563 154.265 50.4056C154.265 50.5582 154.212 50.6868 154.108 50.7917C154 50.8997 153.872 50.9538 153.726 50.9538C153.574 50.9538 153.443 50.8997 153.335 50.7917C153.227 50.69 153.173 50.5613 153.173 50.4056C153.173 50.2531 153.227 50.1228 153.335 50.0148C153.443 49.9131 153.574 49.8622 153.726 49.8622ZM153.307 51.7831H154.127V56.7403H153.307V51.7831Z" fill="#2A5985"/>
<path d="M158.669 51.7831C158.806 51.7831 158.925 51.7816 159.027 51.7784C159.132 51.7752 159.232 51.7688 159.327 51.7593C159.422 51.7466 159.518 51.7291 159.613 51.7069C159.711 51.6846 159.826 51.6529 159.956 51.6115C159.997 51.7323 160.037 51.8467 160.075 51.9547C160.117 52.0628 160.158 52.174 160.199 52.2884C160.098 52.3265 160.004 52.3567 159.918 52.379C159.832 52.4012 159.746 52.4203 159.661 52.4361C159.578 52.4489 159.494 52.4584 159.408 52.4647C159.325 52.4679 159.236 52.4711 159.141 52.4743C159.23 52.6173 159.298 52.7777 159.346 52.9557C159.394 53.1336 159.417 53.3275 159.417 53.5372C159.417 53.8423 159.371 54.1092 159.279 54.338C159.187 54.5636 159.055 54.7558 158.884 54.9147C158.712 55.0736 158.506 55.1944 158.264 55.277C158.026 55.3564 157.757 55.3961 157.458 55.3961C157.306 55.3961 157.161 55.3882 157.025 55.3723C156.888 55.3532 156.758 55.3215 156.634 55.277C156.605 55.3532 156.58 55.4311 156.558 55.5105C156.539 55.59 156.529 55.6662 156.529 55.7393C156.532 55.8092 156.546 55.8744 156.572 55.9348C156.597 55.992 156.642 56.038 156.705 56.073C156.737 56.092 156.771 56.1079 156.805 56.1206C156.84 56.1302 156.882 56.1397 156.929 56.1492C156.98 56.1556 157.041 56.162 157.111 56.1683C157.18 56.1715 157.265 56.1731 157.363 56.1731C157.458 56.1763 157.57 56.1778 157.697 56.1778C157.827 56.1778 157.978 56.1778 158.15 56.1778C158.645 56.1778 159.02 56.2827 159.275 56.4924C159.529 56.699 159.656 57.0215 159.656 57.46C159.656 57.638 159.627 57.7953 159.57 57.9319C159.513 58.0717 159.433 58.1925 159.332 58.2942C159.233 58.3959 159.116 58.4801 158.979 58.5468C158.842 58.6167 158.695 58.6723 158.536 58.7136C158.377 58.7581 158.21 58.7883 158.035 58.8042C157.864 58.8232 157.69 58.8328 157.516 58.8328C157.341 58.8328 157.165 58.8232 156.987 58.8042C156.812 58.7851 156.64 58.7613 156.472 58.7327C156.303 58.7041 156.145 58.6707 155.995 58.6326C155.849 58.5976 155.719 58.5627 155.604 58.5277C155.649 58.4197 155.698 58.3116 155.752 58.2036C155.809 58.0956 155.87 57.9939 155.933 57.8985C156.133 57.9557 156.372 58.0114 156.648 58.0654C156.925 58.1194 157.231 58.1464 157.568 58.1464C157.721 58.1464 157.87 58.1369 158.016 58.1178C158.165 58.0987 158.299 58.0622 158.417 58.0082C158.537 57.9573 158.634 57.8874 158.707 57.7985C158.78 57.7127 158.817 57.5998 158.817 57.46C158.817 57.3139 158.79 57.201 158.736 57.1216C158.685 57.0422 158.615 56.9834 158.526 56.9453C158.437 56.9071 158.332 56.8849 158.212 56.8785C158.091 56.8722 157.964 56.869 157.83 56.869H157.206C157.018 56.869 156.842 56.8547 156.677 56.8261C156.512 56.7975 156.367 56.7498 156.243 56.6831C156.119 56.6132 156.021 56.5226 155.947 56.4114C155.878 56.3002 155.843 56.1635 155.843 56.0015C155.843 55.8458 155.871 55.6853 155.928 55.5201C155.986 55.3517 156.06 55.1816 156.152 55.0101C155.943 54.8575 155.781 54.6557 155.666 54.4047C155.555 54.1537 155.499 53.8645 155.499 53.5372C155.499 53.2385 155.546 52.9748 155.638 52.746C155.733 52.514 155.866 52.317 156.038 52.1549C156.21 51.9929 156.415 51.8721 156.653 51.7927C156.891 51.7132 157.16 51.6735 157.458 51.6735C157.738 51.6735 157.995 51.7101 158.231 51.7831H158.669ZM157.458 52.3313C157.258 52.3313 157.087 52.3615 156.944 52.4218C156.801 52.4822 156.683 52.5664 156.591 52.6745C156.502 52.7793 156.435 52.9064 156.391 53.0558C156.349 53.202 156.329 53.3624 156.329 53.5372C156.329 53.7152 156.349 53.8772 156.391 54.0234C156.435 54.1696 156.504 54.2967 156.596 54.4047C156.688 54.5096 156.804 54.5922 156.944 54.6526C157.087 54.7098 157.258 54.7384 157.458 54.7384C157.659 54.7384 157.83 54.7098 157.973 54.6526C158.116 54.5922 158.232 54.5096 158.321 54.4047C158.413 54.2967 158.48 54.1696 158.521 54.0234C158.566 53.874 158.588 53.712 158.588 53.5372C158.588 53.3624 158.566 53.202 158.521 53.0558C158.48 52.9064 158.413 52.7793 158.321 52.6745C158.232 52.5664 158.116 52.4822 157.973 52.4218C157.83 52.3615 157.659 52.3313 157.458 52.3313Z" fill="#2A5985"/>
<path d="M161.01 51.8689L161.801 51.6926C161.861 51.8832 161.904 52.0675 161.929 52.2455C161.942 52.3313 161.958 52.5013 161.977 52.7555H162.077C162.252 52.4346 162.468 52.1788 162.725 51.9881C163.008 51.7784 163.307 51.6735 163.622 51.6735C164.095 51.6735 164.456 51.7879 164.704 52.0167C164.916 52.2105 165.064 52.5076 165.147 52.908C165.201 53.1813 165.228 53.5881 165.228 54.1283V56.7403H164.408V53.8995C164.408 53.426 164.362 53.0876 164.27 52.8842C164.133 52.5823 163.858 52.4314 163.445 52.4314C163.153 52.4314 162.867 52.5712 162.587 52.8508C162.4 53.0383 162.2 53.3132 161.987 53.6754V56.7403H161.167V53.6897C161.167 53.2607 161.156 52.8906 161.133 52.5791C161.121 52.3853 161.079 52.1486 161.01 51.8689Z" fill="#2A5985"/>
<path d="M166.639 56.7403V53.6754C166.639 53.1861 166.628 52.8175 166.605 52.5696C166.593 52.3758 166.551 52.139 166.481 51.8594L167.263 51.683C167.324 51.8737 167.366 52.058 167.392 52.236C167.405 52.3027 167.42 52.4759 167.439 52.7555H167.54C167.702 52.4314 167.905 52.1772 168.15 51.9929C168.413 51.78 168.714 51.6735 169.051 51.6735C169.241 51.6735 169.426 51.7085 169.603 51.7784C169.781 51.8451 169.931 51.9404 170.052 52.0644C170.233 52.2423 170.361 52.5061 170.438 52.8556H170.495C170.685 52.487 170.91 52.2042 171.167 52.0072C171.443 51.7847 171.753 51.6735 172.096 51.6735C172.513 51.6735 172.832 51.7895 173.054 52.0215C173.248 52.2153 173.385 52.5108 173.464 52.908C173.522 53.1972 173.55 53.6008 173.55 54.1187V56.7403H172.73V53.8899C172.73 53.6389 172.716 53.4323 172.687 53.2703C172.643 53.0192 172.563 52.8238 172.449 52.684C172.306 52.5156 172.106 52.4314 171.849 52.4314C171.556 52.4314 171.286 52.5712 171.038 52.8508C170.889 53.0192 170.711 53.2798 170.504 53.6325C170.511 53.6866 170.514 53.766 170.514 53.8709V56.7403H169.694V53.8899C169.694 53.4864 169.654 53.1765 169.575 52.9605C169.441 52.6077 169.189 52.4314 168.817 52.4314C168.531 52.4314 168.259 52.5744 168.002 52.8604C167.853 53.0256 167.671 53.3005 167.459 53.685V56.7403H166.639Z" fill="#2A5985"/>
<path d="M178.65 56.4638C178.298 56.6037 177.965 56.7037 177.654 56.7641C177.346 56.8245 177.069 56.8547 176.825 56.8547C176.45 56.8547 176.122 56.7959 175.843 56.6783C175.563 56.5576 175.33 56.3892 175.142 56.1731C174.958 55.957 174.818 55.6996 174.723 55.4009C174.631 55.099 174.584 54.767 174.584 54.4047C174.584 54.1823 174.6 53.9598 174.632 53.7374C174.664 53.515 174.715 53.3036 174.785 53.1035C174.855 52.9001 174.945 52.711 175.056 52.5362C175.171 52.3615 175.309 52.2105 175.471 52.0834C175.633 51.9563 175.822 51.8562 176.038 51.7831C176.254 51.7101 176.501 51.6735 176.777 51.6735C177.486 51.6735 178.02 51.8959 178.379 52.3408C178.738 52.7825 178.917 53.4165 178.917 54.2426V54.5048H175.428C175.428 54.7717 175.457 55.0085 175.514 55.215C175.571 55.4184 175.659 55.5916 175.776 55.7346C175.897 55.8744 176.048 55.9808 176.229 56.0539C176.413 56.127 176.631 56.1635 176.882 56.1635C177.022 56.1635 177.16 56.154 177.297 56.1349C177.436 56.1127 177.571 56.0857 177.702 56.0539C177.832 56.019 177.956 55.9808 178.074 55.9395C178.194 55.8982 178.307 55.8585 178.412 55.8204L178.65 56.4638ZM178.093 53.847C178.067 53.3322 177.943 52.9573 177.721 52.7221C177.502 52.4838 177.187 52.3647 176.777 52.3647C176.367 52.3647 176.054 52.4838 175.838 52.7221C175.625 52.9573 175.496 53.3322 175.452 53.847H178.093Z" fill="#2A5985"/>
<path d="M180.037 51.8689L180.829 51.6926C180.889 51.8832 180.932 52.0675 180.957 52.2455C180.97 52.3313 180.986 52.5013 181.005 52.7555H181.105C181.28 52.4346 181.496 52.1788 181.753 51.9881C182.036 51.7784 182.335 51.6735 182.649 51.6735C183.123 51.6735 183.484 51.7879 183.731 52.0167C183.944 52.2105 184.092 52.5076 184.175 52.908C184.229 53.1813 184.256 53.5881 184.256 54.1283V56.7403H183.436V53.8995C183.436 53.426 183.39 53.0876 183.298 52.8842C183.161 52.5823 182.886 52.4314 182.473 52.4314C182.181 52.4314 181.895 52.5712 181.615 52.8508C181.428 53.0383 181.227 53.3132 181.014 53.6754V56.7403H180.195V53.6897C180.195 53.2607 180.184 52.8906 180.161 52.5791C180.149 52.3853 180.107 52.1486 180.037 51.8689Z" fill="#2A5985"/>
<path d="M186.105 50.6487H186.925V51.7831H188.593V52.4743H186.925V55.3199C186.925 55.5105 186.93 55.6567 186.939 55.7584C186.952 55.8569 186.981 55.9348 187.025 55.992C187.108 56.1063 187.274 56.1635 187.525 56.1635C187.665 56.1635 187.8 56.1492 187.931 56.1206C188.064 56.092 188.186 56.0603 188.298 56.0253C188.387 56.2192 188.468 56.4321 188.541 56.664C188.166 56.7911 187.788 56.8547 187.406 56.8547C187.13 56.8547 186.907 56.8229 186.739 56.7594C186.574 56.699 186.444 56.5989 186.348 56.4591C186.25 56.3129 186.185 56.1381 186.153 55.9348C186.121 55.7314 186.105 55.4502 186.105 55.0911V52.4743H185.39V51.7831H186.105V50.6487Z" fill="#2A5985"/>
<path d="M0.154707 43.9105H188.975V44.4683H0.154707V43.9105Z" fill="#2A5985"/>
</svg>
