<svg width="14" height="14" viewBox="0 0 14 14" fill="none" xmlns="http://www.w3.org/2000/svg">
<path fill-rule="evenodd" clip-rule="evenodd" d="M2.33329 1.66594C1.96418 1.66594 1.66496 1.96516 1.66496 2.33427V11.6676C1.66496 12.0367 1.96418 12.3359 2.33329 12.3359H11.6666C12.0357 12.3359 12.335 12.0367 12.335 11.6676V2.33427C12.335 1.96516 12.0357 1.66594 11.6666 1.66594H2.33329ZM0.334961 2.33427C0.334961 1.23062 1.22965 0.335938 2.33329 0.335938H11.6666C12.7703 0.335938 13.665 1.23062 13.665 2.33427V11.6676C13.665 12.7713 12.7703 13.6659 11.6666 13.6659H2.33329C1.22965 13.6659 0.334961 12.7713 0.334961 11.6676V2.33427ZM6.99996 3.66797C7.36723 3.66797 7.66496 3.9657 7.66496 4.33297V6.33594H9.66655C10.0338 6.33594 10.3315 6.63367 10.3315 7.00094C10.3315 7.36821 10.0338 7.66594 9.66655 7.66594H7.66496V9.6663C7.66496 10.0336 7.36723 10.3313 6.99996 10.3313C6.63269 10.3313 6.33496 10.0336 6.33496 9.6663V7.66594H4.33321C3.96594 7.66594 3.66821 7.36821 3.66821 7.00094C3.66821 6.63367 3.96594 6.33594 4.33321 6.33594H6.33496V4.33297C6.33496 3.9657 6.63269 3.66797 6.99996 3.66797Z" fill="#EE3131"/>
</svg>
