<svg width="14" height="14" viewBox="0 0 14 14" fill="none" xmlns="http://www.w3.org/2000/svg">
<g clip-path="url(#clip0_612_3755)">
<path fill-rule="evenodd" clip-rule="evenodd" d="M1.74822 6.99919C1.74822 4.09889 4.09938 1.74773 6.99968 1.74773C9.89998 1.74773 12.2511 4.09889 12.2511 6.99919C12.2511 9.89949 9.89998 12.2507 6.99968 12.2507C4.09938 12.2507 1.74822 9.89949 1.74822 6.99919ZM6.99968 0.583984C3.45666 0.583984 0.584473 3.45617 0.584473 6.99919C0.584473 10.5422 3.45666 13.4144 6.99968 13.4144C10.5427 13.4144 13.4149 10.5422 13.4149 6.99919C13.4149 3.45617 10.5427 0.583984 6.99968 0.583984ZM10.3284 5.22321C10.5556 4.99598 10.5556 4.62755 10.3284 4.40032C10.1011 4.17308 9.73271 4.17308 9.50547 4.40032L5.9065 7.99928L4.49503 6.58782C4.2678 6.36058 3.89937 6.36058 3.67214 6.58782C3.4449 6.81505 3.4449 7.18348 3.67214 7.41071L5.49505 9.23363C5.72229 9.46087 6.09071 9.46087 6.31795 9.23363L10.3284 5.22321Z" fill="#74798B"/>
</g>
<defs>
<clipPath id="clip0_612_3755">
<rect width="14" height="14" fill="white"/>
</clipPath>
</defs>
</svg>
