<svg width="36" height="36" viewBox="0 0 36 36" fill="none" xmlns="http://www.w3.org/2000/svg">
<rect x="0.5" y="0.5" width="35" height="35" rx="17.5" fill="white"/>
<rect x="0.5" y="0.5" width="35" height="35" rx="17.5" stroke="#E2E4E9"/>
<path fill-rule="evenodd" clip-rule="evenodd" d="M13.3333 12.6659C12.9642 12.6659 12.665 12.9652 12.665 13.3343V22.6676C12.665 23.0367 12.9642 23.3359 13.3333 23.3359H22.6666C23.0357 23.3359 23.335 23.0367 23.335 22.6676V13.3343C23.335 12.9652 23.0357 12.6659 22.6666 12.6659H13.3333ZM11.335 13.3343C11.335 12.2306 12.2296 11.3359 13.3333 11.3359H22.6666C23.7703 11.3359 24.665 12.2306 24.665 13.3343V22.6676C24.665 23.7713 23.7703 24.6659 22.6666 24.6659H13.3333C12.2296 24.6659 11.335 23.7713 11.335 22.6676V13.3343ZM18 14.668C18.3672 14.668 18.665 14.9657 18.665 15.333V17.3359H20.6665C21.0338 17.3359 21.3315 17.6337 21.3315 18.0009C21.3315 18.3682 21.0338 18.6659 20.6665 18.6659H18.665V20.6663C18.665 21.0336 18.3672 21.3313 18 21.3313C17.6327 21.3313 17.335 21.0336 17.335 20.6663V18.6659H15.3332C14.9659 18.6659 14.6682 18.3682 14.6682 18.0009C14.6682 17.6337 14.9659 17.3359 15.3332 17.3359H17.335V15.333C17.335 14.9657 17.6327 14.668 18 14.668Z" fill="#EE3131"/>
</svg>
