<svg width="14" height="14" viewBox="0 0 14 14" fill="none" xmlns="http://www.w3.org/2000/svg">
<path fill-rule="evenodd" clip-rule="evenodd" d="M7.3572 0.706555C7.14708 0.543127 6.85285 0.543127 6.64273 0.706555L1.39273 4.78989C1.25099 4.90013 1.16809 5.06963 1.16809 5.24919V11.6659C1.16809 12.1296 1.35231 12.5743 1.68023 12.9023C2.00814 13.2302 2.45289 13.4144 2.91663 13.4144H5.21326C5.2254 13.4152 5.23764 13.4155 5.24997 13.4155C5.26229 13.4155 5.27453 13.4152 5.28667 13.4144H8.71326C8.7254 13.4152 8.73764 13.4155 8.74997 13.4155C8.76229 13.4155 8.77453 13.4152 8.78667 13.4144H11.0833C11.547 13.4144 11.9918 13.2302 12.3197 12.9023C12.6476 12.5743 12.8318 12.1296 12.8318 11.6659V5.24919C12.8318 5.06963 12.7489 4.90013 12.6072 4.78989L7.3572 0.706555ZM9.33184 12.2507H11.0833C11.2384 12.2507 11.3871 12.189 11.4968 12.0794C11.6065 11.9697 11.6681 11.821 11.6681 11.6659V5.53378L6.99997 1.90301L2.33184 5.53378V11.6659C2.33184 11.821 2.39345 11.9697 2.50312 12.0794C2.61279 12.189 2.76154 12.2507 2.91663 12.2507H4.66809V7.00033C4.66809 6.67897 4.92861 6.41846 5.24997 6.41846H8.74997C9.07133 6.41846 9.33184 6.67897 9.33184 7.00033V12.2507ZM5.83184 12.2507H8.16809V7.58221H5.83184V12.2507Z" fill="#74798B"/>
</svg>
