<svg width="12" height="4" viewBox="0 0 12 4" fill="none" xmlns="http://www.w3.org/2000/svg">
<path fill-rule="evenodd" clip-rule="evenodd" d="M1.33313 0.667969C0.597672 0.667969 0.00146484 1.26418 0.00146484 1.99964C0.00146484 2.73509 0.597672 3.3313 1.33313 3.3313C2.06859 3.3313 2.6648 2.73509 2.6648 1.99964C2.6648 1.26418 2.06859 0.667969 1.33313 0.667969ZM4.66846 1.99964C4.66846 1.26418 5.26466 0.667969 6.00012 0.667969C6.73558 0.667969 7.33179 1.26418 7.33179 1.99964C7.33179 2.73509 6.73558 3.3313 6.00012 3.3313C5.26466 3.3313 4.66846 2.73509 4.66846 1.99964ZM9.33496 1.99964C9.33496 1.26418 9.93117 0.667969 10.6666 0.667969C11.4021 0.667969 11.9983 1.26418 11.9983 1.99964C11.9983 2.73509 11.4021 3.3313 10.6666 3.3313C9.93117 3.3313 9.33496 2.73509 9.33496 1.99964Z" fill="#74798B"/>
</svg>
