<svg width="106" height="107" viewBox="0 0 106 107" fill="none" xmlns="http://www.w3.org/2000/svg">
<circle cx="53" cy="53.6656" r="52.5" fill="white" stroke="#E2E4E9" stroke-dasharray="2 2"/>
<path fill-rule="evenodd" clip-rule="evenodd" d="M36.2464 40.7838C36.2464 36.5115 39.7097 33.0482 43.982 33.0482C48.2542 33.0482 51.7176 36.5115 51.7176 40.7838C51.7176 45.056 48.2542 48.5194 43.982 48.5194C39.7097 48.5194 36.2464 45.056 36.2464 40.7838ZM43.982 27.9083C36.871 27.9083 31.1065 33.6728 31.1065 40.7838C31.1065 47.8947 36.871 53.6593 43.982 53.6593C51.0929 53.6593 56.8575 47.8947 56.8575 40.7838C56.8575 33.6728 51.0929 27.9083 43.982 27.9083ZM34.9653 58.8249C31.5506 58.8249 28.2756 60.1815 25.861 62.5961C23.4464 65.0107 22.0898 68.2856 22.0898 71.7004V76.8532C22.0898 78.2726 23.2404 79.4232 24.6598 79.4232C26.0791 79.4232 27.2297 78.2726 27.2297 76.8532V71.7004C27.2297 69.6488 28.0447 67.6812 29.4954 66.2305C30.9462 64.7798 32.9137 63.9648 34.9653 63.9648H53.0001C55.0517 63.9648 57.0193 64.7798 58.47 66.2305C59.9207 67.6812 60.7357 69.6488 60.7357 71.7004V76.8532C60.7357 78.2726 61.8863 79.4232 63.3056 79.4232C64.725 79.4232 65.8756 78.2726 65.8756 76.8532V71.7004C65.8756 68.2856 64.5191 65.0107 62.1044 62.5961C59.6898 60.1815 56.4149 58.8249 53.0001 58.8249H34.9653ZM73.6119 40.79C75.0312 40.79 76.1818 41.9406 76.1818 43.36V48.5192H81.3411C82.7604 48.5192 83.911 49.6698 83.911 51.0891C83.911 52.5085 82.7604 53.6591 81.3411 53.6591H76.1818V58.8183C76.1818 60.2377 75.0312 61.3883 73.6119 61.3883C72.1926 61.3883 71.0419 60.2377 71.0419 58.8183V53.6591H65.8827C64.4634 53.6591 63.3128 52.5085 63.3128 51.0891C63.3128 49.6698 64.4634 48.5192 65.8827 48.5192H71.0419V43.36C71.0419 41.9406 72.1926 40.79 73.6119 40.79Z" fill="#8F929C"/>
</svg>
