<svg width="62" height="53" viewBox="0 0 62 53" fill="none" xmlns="http://www.w3.org/2000/svg">
<path fill-rule="evenodd" clip-rule="evenodd" d="M14.2464 13.7838C14.2464 9.51151 17.7097 6.04816 21.982 6.04816C26.2542 6.04816 29.7176 9.51151 29.7176 13.7838C29.7176 18.056 26.2542 21.5194 21.982 21.5194C17.7097 21.5194 14.2464 18.056 14.2464 13.7838ZM21.982 0.908264C14.871 0.908264 9.10649 6.67282 9.10649 13.7838C9.10649 20.8947 14.871 26.6593 21.982 26.6593C29.0929 26.6593 34.8575 20.8947 34.8575 13.7838C34.8575 6.67282 29.0929 0.908264 21.982 0.908264ZM12.9653 31.8249C9.55055 31.8249 6.27562 33.1815 3.86099 35.5961C1.44637 38.0107 0.0898438 41.2856 0.0898438 44.7004V49.8532C0.0898438 51.2726 1.24045 52.4232 2.65979 52.4232C4.07913 52.4232 5.22974 51.2726 5.22974 49.8532V44.7004C5.22974 42.6488 6.04474 40.6812 7.49545 39.2305C8.94616 37.7798 10.9137 36.9648 12.9653 36.9648H31.0001C33.0517 36.9648 35.0193 37.7798 36.47 39.2305C37.9207 40.6812 38.7357 42.6488 38.7357 44.7004V49.8532C38.7357 51.2726 39.8863 52.4232 41.3056 52.4232C42.725 52.4232 43.8756 51.2726 43.8756 49.8532V44.7004C43.8756 41.2856 42.5191 38.0107 40.1044 35.5961C37.6898 33.1815 34.4149 31.8249 31.0001 31.8249H12.9653ZM51.6119 13.79C53.0312 13.79 54.1818 14.9406 54.1818 16.36V21.5192H59.3411C60.7604 21.5192 61.911 22.6698 61.911 24.0891C61.911 25.5085 60.7604 26.6591 59.3411 26.6591H54.1818V31.8183C54.1818 33.2377 53.0312 34.3883 51.6119 34.3883C50.1926 34.3883 49.0419 33.2377 49.0419 31.8183V26.6591H43.8827C42.4634 26.6591 41.3128 25.5085 41.3128 24.0891C41.3128 22.6698 42.4634 21.5192 43.8827 21.5192H49.0419V16.36C49.0419 14.9406 50.1926 13.79 51.6119 13.79Z" fill="#8F929C"/>
</svg>
