<svg width="14" height="14" viewBox="0 0 14 14" fill="none" xmlns="http://www.w3.org/2000/svg">
<path fill-rule="evenodd" clip-rule="evenodd" d="M7 0.395996C5.86559 0.395996 4.7745 0.8353 3.96756 1.6222C3.16008 2.40963 2.70339 3.4811 2.70339 4.60182C2.70339 6.58493 2.26861 7.81246 1.87065 8.52394C1.67067 8.88147 1.4762 9.11555 1.34166 9.25404C1.27422 9.32345 1.22142 9.36928 1.18996 9.39485C1.17422 9.40764 1.16381 9.41537 1.15957 9.41845L1.15837 9.41931C0.926261 9.57504 0.82179 9.86389 0.901449 10.1326C0.981994 10.4042 1.23161 10.5906 1.51497 10.5906H12.485C12.7684 10.5906 13.018 10.4042 13.0986 10.1326C13.1782 9.86389 13.0737 9.57504 12.8416 9.41931L12.8404 9.41845C12.8362 9.41537 12.8258 9.40764 12.81 9.39485C12.7786 9.36928 12.7258 9.32345 12.6583 9.25404C12.5238 9.11555 12.3293 8.88147 12.1293 8.52394C11.7314 7.81246 11.2966 6.58493 11.2966 4.60182C11.2966 3.4811 10.8399 2.40963 10.0324 1.6222C9.2255 0.8353 8.13441 0.395996 7 0.395996ZM11.0124 9.14871C11.0437 9.20473 11.0751 9.25873 11.1065 9.31075H2.89349C2.92488 9.25873 2.9563 9.20473 2.98763 9.14871C3.50385 8.22582 3.98323 6.77892 3.98323 4.60182C3.98323 3.83106 4.29706 3.08853 4.8611 2.53849C5.42569 1.98792 6.19479 1.67584 7 1.67584C7.80521 1.67584 8.57431 1.98792 9.1389 2.53849C9.70294 3.08853 10.0168 3.83106 10.0168 4.60182C10.0168 6.77892 10.4962 8.22582 11.0124 9.14871ZM5.88634 11.8741C5.70152 11.5555 5.2934 11.4471 4.97479 11.6319C4.65618 11.8167 4.54772 12.2248 4.73254 12.5434C4.95867 12.9333 5.28325 13.2568 5.67377 13.4818C6.06429 13.7067 6.50705 13.8251 6.95772 13.8251C7.40839 13.8251 7.85115 13.7067 8.24167 13.4818C8.6322 13.2568 8.95677 12.9333 9.18291 12.5434C9.36773 12.2248 9.25927 11.8167 8.94066 11.6319C8.62204 11.4471 8.21393 11.5555 8.02911 11.8741C7.92023 12.0618 7.76395 12.2176 7.57592 12.3259C7.38789 12.4342 7.17471 12.4912 6.95772 12.4912C6.74073 12.4912 6.52755 12.4342 6.33952 12.3259C6.15149 12.2176 5.99522 12.0618 5.88634 11.8741Z" fill="#74798B"/>
</svg>
