<svg width="20" height="20" viewBox="0 0 20 20" fill="none" xmlns="http://www.w3.org/2000/svg">
<path fill-rule="evenodd" clip-rule="evenodd" d="M3.33318 3.33242C3.11162 3.33242 2.89912 3.42044 2.74245 3.57711C2.58578 3.73378 2.49777 3.94627 2.49777 4.16784V15.8345C2.49777 16.0561 2.58578 16.2686 2.74245 16.4252C2.89913 16.5819 3.11162 16.6699 3.33318 16.6699H16.6665C16.8881 16.6699 17.1006 16.5819 17.2572 16.4252C17.4139 16.2686 17.5019 16.0561 17.5019 15.8345V6.66784C17.5019 6.44627 17.4139 6.23378 17.2572 6.07711C17.1006 5.92044 16.8881 5.83242 16.6665 5.83242H9.16652C8.88858 5.83242 8.62904 5.69352 8.47487 5.46227L7.05498 3.33242H3.33318ZM1.56689 2.40154C2.03534 1.93309 2.67069 1.66992 3.33318 1.66992H7.49985C7.77778 1.66992 8.03732 1.80882 8.19149 2.04008L9.61139 4.16992H16.6665C17.329 4.16992 17.9644 4.43309 18.4328 4.90154C18.9013 5.36999 19.1644 6.00535 19.1644 6.66784V15.8345C19.1644 16.497 18.9013 17.1323 18.4328 17.6008C17.9644 18.0693 17.329 18.3324 16.6665 18.3324H3.33318C2.67069 18.3324 2.03534 18.0693 1.56689 17.6008C1.09844 17.1323 0.835266 16.497 0.835266 15.8345V4.16784C0.835266 3.50535 1.09844 2.86999 1.56689 2.40154Z" fill="#74798B"/>
</svg>
