<svg width="16" height="16" viewBox="0 0 14 16" fill="none" xmlns="http://www.w3.org/2000/svg">
<path fill-rule="evenodd" clip-rule="evenodd" d="M5.19372 2.19372C5.31906 2.06838 5.48905 1.99797 5.6663 1.99797H8.33297C8.51022 1.99797 8.68021 2.06838 8.80555 2.19372C8.93089 2.31906 9.0013 2.48905 9.0013 2.6663V3.33472H4.99797V2.6663C4.99797 2.48905 5.06838 2.31906 5.19372 2.19372ZM3.66797 3.33472V2.6663C3.66797 2.13631 3.87851 1.62803 4.25327 1.25327C4.62803 0.878507 5.13631 0.667969 5.6663 0.667969H8.33297C8.86296 0.667969 9.37124 0.878507 9.746 1.25327C10.1208 1.62803 10.3313 2.13631 10.3313 2.6663V3.33472H11.6558L11.6663 3.33464L11.6768 3.33472H13C13.3672 3.33472 13.665 3.63245 13.665 3.99972C13.665 4.36699 13.3672 4.66472 13 4.66472H12.3313V13.333C12.3313 13.863 12.1208 14.3712 11.746 14.746C11.3712 15.1208 10.863 15.3313 10.333 15.3313H3.6663C3.13631 15.3313 2.62803 15.1208 2.25327 14.746C1.87851 14.3712 1.66797 13.863 1.66797 13.333V4.66472H0.999961C0.632692 4.66472 0.334961 4.36699 0.334961 3.99972C0.334961 3.63245 0.632692 3.33472 0.999961 3.33472H2.32245L2.33297 3.33464L2.34349 3.33472H3.66797ZM2.99797 4.66472V13.333C2.99797 13.5102 3.06838 13.6802 3.19372 13.8056C3.31906 13.9309 3.48905 14.0013 3.6663 14.0013H10.333C10.5102 14.0013 10.6802 13.9309 10.8056 13.8056C10.9309 13.6802 11.0013 13.5102 11.0013 13.333V4.66472H2.99797ZM5.66695 6.66797C6.03422 6.66797 6.33195 6.9657 6.33195 7.33297V11.333C6.33195 11.7002 6.03422 11.998 5.66695 11.998C5.29968 11.998 5.00195 11.7002 5.00195 11.333V7.33297C5.00195 6.9657 5.29968 6.66797 5.66695 6.66797ZM8.99797 7.33297C8.99797 6.9657 8.70024 6.66797 8.33297 6.66797C7.9657 6.66797 7.66797 6.9657 7.66797 7.33297V11.333C7.66797 11.7002 7.9657 11.998 8.33297 11.998C8.70024 11.998 8.99797 11.7002 8.99797 11.333V7.33297Z" fill="#74798B"/>
</svg>
