<svg width="20" height="20" viewBox="0 0 20 20" fill="none" xmlns="http://www.w3.org/2000/svg">
<path fill-rule="evenodd" clip-rule="evenodd" d="M16.0043 2.67166C16.1799 2.49603 16.4181 2.39736 16.6665 2.39736C16.9149 2.39736 17.1531 2.49603 17.3287 2.67166C17.5043 2.84729 17.603 3.0855 17.603 3.33388C17.603 3.58226 17.5043 3.82047 17.3287 3.9961L9.57483 11.75L7.80892 12.1914L8.25039 10.4255L16.0043 2.67166ZM16.6665 0.734863C15.9772 0.734863 15.3161 1.00869 14.8287 1.4961L6.91202 9.41276C6.80549 9.5193 6.72992 9.65278 6.69338 9.79894L5.86004 13.1323C5.78922 13.4155 5.87222 13.7152 6.07869 13.9217C6.28516 14.1281 6.58481 14.2111 6.86808 14.1403L10.2014 13.307C10.3476 13.2704 10.4811 13.1949 10.5876 13.0883L18.5043 5.17166C18.9917 4.68425 19.2655 4.02318 19.2655 3.33388C19.2655 2.64458 18.9917 1.98351 18.5043 1.4961C18.0168 1.00869 17.3558 0.734863 16.6665 0.734863ZM3.33312 2.50244C2.67063 2.50244 2.03528 2.76561 1.56683 3.23406C1.09838 3.70251 0.835205 4.33787 0.835205 5.00036V16.667C0.835205 17.3295 1.09838 17.9649 1.56683 18.4333C2.03528 18.9018 2.67063 19.1649 3.33312 19.1649H14.9998C15.6623 19.1649 16.2976 18.9018 16.7661 18.4333C17.2345 17.9649 17.4977 17.3295 17.4977 16.667V10.8337C17.4977 10.3746 17.1255 10.0024 16.6665 10.0024C16.2074 10.0024 15.8352 10.3746 15.8352 10.8337V16.667C15.8352 16.8886 15.7472 17.1011 15.5905 17.2578C15.4338 17.4144 15.2214 17.5024 14.9998 17.5024H3.33312C3.11156 17.5024 2.89906 17.4144 2.74239 17.2578C2.58572 17.1011 2.49771 16.8886 2.49771 16.667V5.00036C2.49771 4.77879 2.58572 4.5663 2.74239 4.40963C2.89906 4.25296 3.11156 4.16494 3.33312 4.16494H9.16646C9.62554 4.16494 9.99771 3.79278 9.99771 3.33369C9.99771 2.8746 9.62554 2.50244 9.16646 2.50244H3.33312Z" fill="#74798B"/>
</svg>
