<svg width="14" height="14" viewBox="0 0 14 14" fill="none" xmlns="http://www.w3.org/2000/svg">
                            <path fill-rule="evenodd" clip-rule="evenodd"
                                d="M0.999961 0.335938C0.632692 0.335938 0.334961 0.633668 0.334961 1.00094V5.6676C0.334961 6.03487 0.632692 6.3326 0.999961 6.3326H5.66663C6.0339 6.3326 6.33163 6.03487 6.33163 5.6676V1.00094C6.33163 0.633668 6.0339 0.335938 5.66663 0.335938H0.999961ZM1.66496 5.0026V1.66594H5.00163V5.0026H1.66496ZM8.33346 0.335938C7.96619 0.335938 7.66846 0.633668 7.66846 1.00094V5.6676C7.66846 6.03487 7.96619 6.3326 8.33346 6.3326H13.0001C13.3674 6.3326 13.6651 6.03487 13.6651 5.6676V1.00094C13.6651 0.633668 13.3674 0.335938 13.0001 0.335938H8.33346ZM8.99846 5.0026V1.66594H12.3351V5.0026H8.99846ZM7.66846 8.33419C7.66846 7.96692 7.96619 7.66919 8.33346 7.66919H13.0001C13.3674 7.66919 13.6651 7.96692 13.6651 8.33419V13.0009C13.6651 13.3681 13.3674 13.6659 13.0001 13.6659H8.33346C7.96619 13.6659 7.66846 13.3681 7.66846 13.0009V8.33419ZM8.99846 8.99919V12.3359H12.3351V8.99919H8.99846ZM0.999961 7.66919C0.632692 7.66919 0.334961 7.96692 0.334961 8.33419V13.0009C0.334961 13.3681 0.632692 13.6659 0.999961 13.6659H5.66663C6.0339 13.6659 6.33163 13.3681 6.33163 13.0009V8.33419C6.33163 7.96692 6.0339 7.66919 5.66663 7.66919H0.999961ZM1.66496 12.3359V8.99919H5.00163V12.3359H1.66496Z"
                                fill="#8F929C" />
                        </svg>