<svg width="20" height="20" viewBox="0 0 20 20" fill="none" xmlns="http://www.w3.org/2000/svg">
<path fill-rule="evenodd" clip-rule="evenodd" d="M2.14395 10.5911C1.99403 10.3589 1.87306 10.1579 1.7819 10.0004C1.87306 9.84279 1.99403 9.64181 2.14395 9.40967C2.52819 8.81473 3.0972 8.02355 3.83595 7.23555C5.32861 5.64338 7.41578 4.16494 10.0004 4.16494C12.5849 4.16494 14.6721 5.64338 16.1648 7.23555C16.9035 8.02355 17.4725 8.81473 17.8568 9.40967C18.0067 9.64181 18.1277 9.84279 18.2188 10.0004C18.1277 10.1579 18.0067 10.3589 17.8568 10.5911C17.4725 11.186 16.9035 11.9772 16.1648 12.7652C14.6721 14.3573 12.5849 15.8358 10.0004 15.8358C7.41578 15.8358 5.32861 14.3573 3.83595 12.7652C3.0972 11.9772 2.52819 11.186 2.14395 10.5911ZM19.167 10.0004C19.9105 9.62861 19.9104 9.62833 19.9102 9.62803L19.167 10.0004ZM19.9102 9.62803C20.0272 9.86205 20.0275 10.1381 19.9105 10.3721L19.167 10.0004C19.9105 10.3721 19.91 10.3731 19.9099 10.3734L19.9089 10.3754L19.906 10.381L19.8966 10.3996C19.8886 10.415 19.8774 10.4366 19.8629 10.464C19.8339 10.5188 19.7918 10.5967 19.7369 10.6943C19.6271 10.8896 19.4654 11.1647 19.2533 11.493C18.8303 12.1481 18.2014 13.0235 17.3776 13.9022C15.7453 15.6434 13.2491 17.4983 10.0004 17.4983C6.7516 17.4983 4.25544 15.6434 2.6231 13.9022C1.79935 13.0235 1.17045 12.1481 0.747388 11.493C0.535342 11.1647 0.373649 10.8896 0.263817 10.6943C0.208869 10.5967 0.166808 10.5188 0.137827 10.464C0.123334 10.4366 0.112103 10.415 0.104159 10.3996L0.094708 10.381L0.0918347 10.3754L0.0901988 10.3721L0.833 10.0007C0.0953132 10.3695 0.0900834 10.3718 0.0901959 10.3721L0.0901988 10.3721C-0.0268111 10.1381 -0.0268111 9.86263 0.0901988 9.62861L0.833691 10.0004C0.0901988 9.62861 0.0907091 9.62759 0.0908619 9.62729L0.0918347 9.62535L0.094708 9.61967L0.104159 9.60116C0.112103 9.58571 0.123334 9.56409 0.137827 9.5367C0.166808 9.48193 0.208869 9.40405 0.263817 9.30637C0.373649 9.11111 0.535342 8.83605 0.747388 8.50772C1.17045 7.85266 1.79935 6.97717 2.6231 6.0985C4.25544 4.35734 6.7516 2.50244 10.0004 2.50244C13.2491 2.50244 15.7453 4.35734 17.3776 6.0985C18.2014 6.97717 18.8303 7.85266 19.2533 8.50772C19.4654 8.83605 19.6271 9.11111 19.7369 9.30637C19.7918 9.40405 19.8339 9.48193 19.8629 9.5367C19.8774 9.56409 19.8886 9.58571 19.8966 9.60116L19.906 9.61967L19.9089 9.62535L19.9102 9.62803ZM8.3312 10.0012C8.3312 9.07955 9.07833 8.33242 9.99995 8.33242C10.9216 8.33242 11.6687 9.07955 11.6687 10.0012C11.6687 10.9228 10.9216 11.6699 9.99995 11.6699C9.07833 11.6699 8.3312 10.9228 8.3312 10.0012ZM9.99995 6.66992C8.16015 6.66992 6.6687 8.16137 6.6687 10.0012C6.6687 11.841 8.16015 13.3324 9.99995 13.3324C11.8398 13.3324 13.3312 11.841 13.3312 10.0012C13.3312 8.16137 11.8398 6.66992 9.99995 6.66992Z" fill="#74798B"/>
</svg>
