<svg width="18" height="18" viewBox="0 0 16 16" fill="none"
                                    xmlns="http://www.w3.org/2000/svg">
                                    <path fill-rule="evenodd" clip-rule="evenodd"
                                        d="M2.3501 4.34922C2.3501 3.99023 2.64111 3.69922 3.0001 3.69922H13.0001C13.3591 3.69922 13.6501 3.99023 13.6501 4.34922C13.6501 4.7082 13.3591 4.99922 13.0001 4.99922H3.0001C2.64111 4.99922 2.3501 4.7082 2.3501 4.34922ZM3.8501 7.99912C3.8501 7.64014 4.14111 7.34912 4.5001 7.34912H11.5001C11.8591 7.34912 12.1501 7.64014 12.1501 7.99912C12.1501 8.35811 11.8591 8.64912 11.5001 8.64912H4.5001C4.14111 8.64912 3.8501 8.35811 3.8501 7.99912ZM6.5001 10.8491C6.14111 10.8491 5.8501 11.1401 5.8501 11.4991C5.8501 11.8581 6.14111 12.1491 6.5001 12.1491H9.5001C9.85908 12.1491 10.1501 11.8581 10.1501 11.4991C10.1501 11.1401 9.85908 10.8491 9.5001 10.8491H6.5001Z"
                                        fill="#8F929C"></path>
                                </svg>