<svg width="14" height="14" viewBox="0 0 14 14" fill="none" xmlns="http://www.w3.org/2000/svg">
<path fill-rule="evenodd" clip-rule="evenodd" d="M7.3572 0.707043C7.14708 0.543616 6.85285 0.543616 6.64273 0.707043L1.39273 4.79038C1.25099 4.90062 1.16809 5.07012 1.16809 5.24968V11.6663C1.16809 12.1301 1.35231 12.5748 1.68023 12.9028C2.00814 13.2307 2.45289 13.4149 2.91663 13.4149H5.21326C5.2254 13.4156 5.23764 13.416 5.24997 13.416C5.26229 13.416 5.27453 13.4156 5.28667 13.4149H8.71326C8.7254 13.4156 8.73764 13.416 8.74997 13.416C8.76229 13.416 8.77453 13.4156 8.78667 13.4149H11.0833C11.547 13.4149 11.9918 13.2307 12.3197 12.9028C12.6476 12.5748 12.8318 12.1301 12.8318 11.6663V5.24968C12.8318 5.07012 12.7489 4.90062 12.6072 4.79038L7.3572 0.707043ZM9.33184 12.2511H11.0833C11.2384 12.2511 11.3871 12.1895 11.4968 12.0799C11.6065 11.9702 11.6681 11.8214 11.6681 11.6663V5.53427L6.99997 1.9035L2.33184 5.53427V11.6663C2.33184 11.8214 2.39345 11.9702 2.50312 12.0799C2.61279 12.1895 2.76154 12.2511 2.91663 12.2511H4.66809V7.00082C4.66809 6.67946 4.92861 6.41895 5.24997 6.41895H8.74997C9.07133 6.41895 9.33184 6.67946 9.33184 7.00082V12.2511ZM5.83184 12.2511H8.16809V7.5827H5.83184V12.2511Z" fill="#74798B"/>
</svg>
