<svg width="16" height="16" viewBox="0 0 16 16" fill="none" xmlns="http://www.w3.org/2000/svg"><path fill-rule="evenodd" clip-rule="evenodd" d="M12.4702 4.47116C12.7299 4.21147 12.7299 3.79041 12.4702 3.53071C12.2105 3.27101 11.7894 3.27101 11.5297 3.53071L7.99996 7.06049L4.47019 3.53071C4.21049 3.27101 3.78943 3.27101 3.52973 3.53071C3.27004 3.79041 3.27004 4.21147 3.52973 4.47116L7.05951 8.00094L3.52973 11.5307C3.27004 11.7904 3.27004 12.2115 3.52973 12.4712C3.78943 12.7309 4.21049 12.7309 4.47019 12.4712L7.99996 8.94139L11.5297 12.4712C11.7894 12.7309 12.2105 12.7309 12.4702 12.4712C12.7299 12.2115 12.7299 11.7904 12.4702 11.5307L8.94041 8.00094L12.4702 4.47116Z" fill="#74798B"/></svg>
