<svg width="14" height="10" viewBox="0 0 14 10" fill="none" xmlns="http://www.w3.org/2000/svg">
                            <path fill-rule="evenodd" clip-rule="evenodd"
                                d="M0.999961 0.335938C0.632692 0.335938 0.334961 0.633668 0.334961 1.00094C0.334961 1.36821 0.632692 1.66594 0.999961 1.66594H1.00663C1.3739 1.66594 1.67163 1.36821 1.67163 1.00094C1.67163 0.633668 1.3739 0.335938 1.00663 0.335938H0.999961ZM4.33346 0.335938C3.96619 0.335938 3.66846 0.633668 3.66846 1.00094C3.66846 1.36821 3.96619 1.66594 4.33346 1.66594H13.0001C13.3674 1.66594 13.6651 1.36821 13.6651 1.00094C13.6651 0.633668 13.3674 0.335938 13.0001 0.335938H4.33346ZM4.33346 4.33594C3.96619 4.33594 3.66846 4.63367 3.66846 5.00094C3.66846 5.36821 3.96619 5.66594 4.33346 5.66594H13.0001C13.3674 5.66594 13.6651 5.36821 13.6651 5.00094C13.6651 4.63367 13.3674 4.33594 13.0001 4.33594H4.33346ZM3.66846 9.00094C3.66846 8.63367 3.96619 8.33594 4.33346 8.33594H13.0001C13.3674 8.33594 13.6651 8.63367 13.6651 9.00094C13.6651 9.36821 13.3674 9.66594 13.0001 9.66594H4.33346C3.96619 9.66594 3.66846 9.36821 3.66846 9.00094ZM0.334961 5.00094C0.334961 4.63367 0.632692 4.33594 0.999961 4.33594H1.00663C1.3739 4.33594 1.67163 4.63367 1.67163 5.00094C1.67163 5.36821 1.3739 5.66594 1.00663 5.66594H0.999961C0.632692 5.66594 0.334961 5.36821 0.334961 5.00094ZM0.999961 8.33594C0.632692 8.33594 0.334961 8.63367 0.334961 9.00094C0.334961 9.36821 0.632692 9.66594 0.999961 9.66594H1.00663C1.3739 9.66594 1.67163 9.36821 1.67163 9.00094C1.67163 8.63367 1.3739 8.33594 1.00663 8.33594H0.999961Z"
                                fill="#74798B" />
                        </svg>