<svg width="20" height="20" viewBox="0 0 20 20" fill="none" xmlns="http://www.w3.org/2000/svg">
<g clip-path="url(#clip0_377_11629)">
<path d="M8.33334 10.8332C8.33334 11.2752 8.50893 11.6991 8.82149 12.0117C9.13405 12.3242 9.55798 12.4998 10 12.4998C10.442 12.4998 10.866 12.3242 11.1785 12.0117C11.4911 11.6991 11.6667 11.2752 11.6667 10.8332C11.6667 10.3911 11.4911 9.96722 11.1785 9.65466C10.866 9.3421 10.442 9.1665 10 9.1665C9.55798 9.1665 9.13405 9.3421 8.82149 9.65466C8.50893 9.96722 8.33334 10.3911 8.33334 10.8332Z" stroke="#8F929C" stroke-width="1.2" stroke-linecap="round" stroke-linejoin="round"/>
<path d="M6.66666 17.5V16.6667C6.66666 16.2246 6.84226 15.8007 7.15482 15.4882C7.46738 15.1756 7.8913 15 8.33333 15H11.6667C12.1087 15 12.5326 15.1756 12.8452 15.4882C13.1577 15.8007 13.3333 16.2246 13.3333 16.6667V17.5" stroke="#8F929C" stroke-width="1.2" stroke-linecap="round" stroke-linejoin="round"/>
<path d="M12.5 4.16667C12.5 4.60869 12.6756 5.03262 12.9882 5.34518C13.3007 5.65774 13.7246 5.83333 14.1667 5.83333C14.6087 5.83333 15.0326 5.65774 15.3452 5.34518C15.6577 5.03262 15.8333 4.60869 15.8333 4.16667C15.8333 3.72464 15.6577 3.30072 15.3452 2.98816C15.0326 2.67559 14.6087 2.5 14.1667 2.5C13.7246 2.5 13.3007 2.67559 12.9882 2.98816C12.6756 3.30072 12.5 3.72464 12.5 4.16667Z" stroke="#8F929C" stroke-width="1.2" stroke-linecap="round" stroke-linejoin="round"/>
<path d="M14.1667 8.3335H15.8333C16.2754 8.3335 16.6993 8.50909 17.0118 8.82165C17.3244 9.13421 17.5 9.55814 17.5 10.0002V10.8335" stroke="#8F929C" stroke-width="1.2" stroke-linecap="round" stroke-linejoin="round"/>
<path d="M4.16666 4.16667C4.16666 4.60869 4.34226 5.03262 4.65482 5.34518C4.96738 5.65774 5.3913 5.83333 5.83333 5.83333C6.27536 5.83333 6.69928 5.65774 7.01184 5.34518C7.3244 5.03262 7.5 4.60869 7.5 4.16667C7.5 3.72464 7.3244 3.30072 7.01184 2.98816C6.69928 2.67559 6.27536 2.5 5.83333 2.5C5.3913 2.5 4.96738 2.67559 4.65482 2.98816C4.34226 3.30072 4.16666 3.72464 4.16666 4.16667Z" stroke="#8F929C" stroke-width="1.2" stroke-linecap="round" stroke-linejoin="round"/>
<path d="M2.5 10.8335V10.0002C2.5 9.55814 2.67559 9.13421 2.98816 8.82165C3.30072 8.50909 3.72464 8.3335 4.16667 8.3335H5.83333" stroke="#8F929C" stroke-width="1.2" stroke-linecap="round" stroke-linejoin="round"/>
</g>
<defs>
<clipPath id="clip0_377_11629">
<rect width="20" height="20" fill="white"/>
</clipPath>
</defs>
</svg>
