<svg width="16" height="16" viewBox="0 0 16 16" fill="none" xmlns="http://www.w3.org/2000/svg">
<path fill-rule="evenodd" clip-rule="evenodd" d="M7.99963 1.99797C4.68501 1.99797 1.99797 4.68501 1.99797 7.99963C1.99797 11.3143 4.68501 14.0013 7.99963 14.0013C11.3143 14.0013 14.0013 11.3143 14.0013 7.99963C14.0013 4.68501 11.3143 1.99797 7.99963 1.99797ZM0.667969 7.99963C0.667969 3.95047 3.95047 0.667969 7.99963 0.667969C12.0488 0.667969 15.3313 3.95047 15.3313 7.99963C15.3313 12.0488 12.0488 15.3313 7.99963 15.3313C3.95047 15.3313 0.667969 12.0488 0.667969 7.99963ZM8.17207 5.34751C7.86134 5.29421 7.54177 5.35261 7.26996 5.51235C6.99815 5.67209 6.79165 5.92288 6.68703 6.22029C6.56515 6.56674 6.18549 6.7488 5.83904 6.62693C5.49258 6.50505 5.31052 6.12539 5.43239 5.77893C5.64125 5.18523 6.05348 4.6846 6.59607 4.36571C7.13867 4.04682 7.77661 3.93026 8.39692 4.03666C9.01723 4.14306 9.57986 4.46555 9.98517 4.94703C10.3904 5.42845 10.6123 6.03775 10.6114 6.66703C10.611 7.6863 9.85529 8.35957 9.31525 8.71959C9.02493 8.91314 8.73935 9.05546 8.52896 9.14896C8.42282 9.19613 8.33345 9.23193 8.26905 9.25646C8.2368 9.26875 8.21065 9.27827 8.19162 9.28504L8.16848 9.29314L8.16112 9.29566L8.15852 9.29653L8.1575 9.29687L8.15706 9.29702C8.15686 9.29709 8.15667 9.29715 7.94638 8.66628L8.15667 9.29715C7.80825 9.41329 7.43165 9.22499 7.3155 8.87657C7.19952 8.52861 7.38716 8.15255 7.73469 8.03587L7.73575 8.03551L7.74606 8.03189C7.75632 8.02824 7.77315 8.02214 7.79558 8.01359C7.84056 7.99646 7.90743 7.96975 7.9888 7.93359C8.15341 7.86043 8.36782 7.75275 8.5775 7.61296C9.03734 7.30641 9.28138 6.97992 9.28138 6.66628L9.28138 6.66529C9.28185 6.35001 9.17072 6.04475 8.96769 5.80356C8.76465 5.56236 8.48281 5.40081 8.17207 5.34751ZM10.6114 6.66703V6.66628H9.94646L10.6114 6.66727L10.6114 6.66703ZM7.99996 10.668C7.63269 10.668 7.33496 10.9657 7.33496 11.333C7.33496 11.7002 7.63269 11.998 7.99996 11.998H8.00663C8.3739 11.998 8.67163 11.7002 8.67163 11.333C8.67163 10.9657 8.3739 10.668 8.00663 10.668H7.99996Z" fill="#74798B"/>
</svg>
